<svg width="24" height="24" viewBox="0 0 24 24" fill="none" xmlns="http://www.w3.org/2000/svg">
<circle cx="12" cy="12" r="1" fill="white"/>
<path fill-rule="evenodd" clip-rule="evenodd" d="M15.1405 17.4393C15.3385 16.8802 15.508 16.27 15.6428 15.6184C15.2765 15.8641 14.8952 16.1019 14.5001 16.33C14.1049 16.5581 13.7083 16.7695 13.3124 16.9639C13.9441 17.1729 14.5573 17.3312 15.1405 17.4393ZM15.7798 18.5466C14.863 20.662 13.5097 22 12.0001 22C10.4905 22 9.1371 20.662 8.22031 18.5465C5.92999 18.8102 4.09463 18.3072 3.33984 16.9999C2.58506 15.6925 3.06711 13.8515 4.44066 11.9999C3.06711 10.1483 2.58506 8.30728 3.33984 6.99995C4.09464 5.69261 5.93003 5.18958 8.22039 5.45331C9.13717 3.33797 10.4905 2 12.0001 2C13.5096 2 14.8629 3.33793 15.7797 5.45324C18.0701 5.18949 19.9055 5.69251 20.6603 6.99987C21.4151 8.30722 20.9331 10.1483 19.5595 11.9999C20.9331 13.8516 21.4151 15.6926 20.6603 16.9999C19.9056 18.3073 18.0702 18.8103 15.7798 18.5466ZM14.7569 18.3837C13.8764 18.2063 12.9473 17.9273 12 17.5483C11.0528 17.9272 10.1236 18.2063 9.24318 18.3836C9.28111 18.4652 9.31971 18.5453 9.35897 18.6239C10.2106 20.3272 11.2022 21 12.0001 21C12.798 21 13.7895 20.3272 14.6412 18.6239C14.6804 18.5454 14.719 18.4653 14.7569 18.3837ZM10.6876 16.9639C10.0559 17.1729 9.44278 17.3312 8.8596 17.4393C8.66162 16.8802 8.49216 16.27 8.35733 15.6185C8.72364 15.8641 9.10496 16.1019 9.5001 16.3301C9.89519 16.5582 10.2917 16.7695 10.6876 16.9639ZM7.19497 14.7741C7.34046 15.7839 7.56335 16.728 7.84999 17.5792C7.76038 17.5872 7.67178 17.5938 7.58423 17.5991C5.68325 17.7132 4.60481 17.1909 4.20587 16.4999C3.80693 15.8089 3.89382 14.6138 4.94312 13.0245C4.99145 12.9513 5.04148 12.8779 5.09319 12.8043C5.68701 13.4781 6.39322 14.1432 7.19497 14.7741ZM8.13204 14.2331C8.70576 14.6635 9.33027 15.0773 10.0001 15.4641C10.6699 15.8507 11.3405 16.1847 12 16.4663C12.6596 16.1847 13.3303 15.8507 14.0001 15.464C14.6699 15.0773 15.2944 14.6635 15.8681 14.2331C15.954 13.5211 16.0001 12.7734 16.0001 12C16.0001 11.2265 15.954 10.4788 15.8681 9.76672C15.2944 9.33635 14.6699 8.92256 14.0001 8.53585C13.3303 8.14911 12.6596 7.81516 12 7.53349C11.3405 7.81514 10.6699 8.14907 10.0001 8.53576C9.33028 8.92248 8.70577 9.33628 8.13206 9.76666C8.04619 10.4787 8.00007 11.2265 8.00007 12C8.00007 12.7734 8.04618 13.5211 8.13204 14.2331ZM13.3124 7.03592C13.7083 7.23033 14.1049 7.44168 14.5001 7.66982C14.8952 7.89794 15.2765 8.13572 15.6428 8.38136C15.5079 7.72978 15.3385 7.1196 15.1405 6.56049C14.5573 6.66858 13.9441 6.8269 13.3124 7.03592ZM16.9552 10.6545C16.9848 11.0946 17.0001 11.5437 17.0001 12C17.0001 12.4562 16.9848 12.9053 16.9552 13.3453C17.4521 12.9027 17.8957 12.4509 18.2809 11.9999C17.8957 11.5489 17.4521 11.0971 16.9552 10.6545ZM18.9069 11.1955C18.3131 10.5217 17.6069 9.85659 16.8052 9.22571C16.6597 8.2159 16.4367 7.27172 16.1501 6.42052C16.2397 6.41255 16.3284 6.40593 16.416 6.40067C18.3169 6.28657 19.3954 6.80888 19.7943 7.49987C20.1933 8.19085 20.1064 9.38597 19.0571 10.9752C19.0087 11.0484 18.9587 11.1219 18.9069 11.1955ZM18.9069 12.8043C18.3131 13.4781 17.6069 14.1432 16.8052 14.7741C16.6597 15.7839 16.4368 16.7281 16.1501 17.5793C16.2398 17.5873 16.3284 17.5939 16.416 17.5991C18.3169 17.7132 19.3954 17.1909 19.7943 16.4999C20.1933 15.809 20.1064 14.6138 19.0571 13.0246C19.0087 12.9514 18.9587 12.8779 18.9069 12.8043ZM12 6.45147C11.0528 6.0726 10.1237 5.79358 9.24326 5.61624C9.28116 5.53465 9.31974 5.4546 9.35897 5.37615C10.2106 3.67281 11.2022 3 12.0001 3C12.798 3 13.7895 3.67281 14.6412 5.37615C14.6804 5.45458 14.719 5.5346 14.7569 5.61617C13.8764 5.79352 12.9472 6.07257 12 6.45147ZM8.85966 6.56056C9.44282 6.66864 10.0559 6.82694 10.6876 7.03594C10.2917 7.23032 9.89519 7.44163 9.5001 7.66974C9.10497 7.89786 8.72367 8.13565 8.35737 8.3813C8.49221 7.72976 8.66168 7.11964 8.85966 6.56056ZM7.85005 6.4206C7.76042 6.41263 7.6718 6.40601 7.58423 6.40076C5.68325 6.28666 4.60481 6.80896 4.20587 7.49995C3.80693 8.19094 3.89382 9.38605 4.94312 10.9753C4.99145 11.0485 5.04148 11.1219 5.09319 11.1955C5.68701 10.5217 6.39324 9.85655 7.19501 9.22565C7.3405 8.2159 7.56341 7.27176 7.85005 6.4206ZM5.71919 11.9999C6.1044 11.5489 6.54808 11.097 7.04495 10.6545C7.01535 11.0946 7.00007 11.5437 7.00007 12C7.00007 12.4562 7.01535 12.9053 7.04493 13.3453C6.54808 12.9028 6.1044 12.4509 5.71919 11.9999Z" fill="white"/>
</svg>
