<svg width="1165" height="109" viewBox="0 0 1165 109" fill="none" xmlns="http://www.w3.org/2000/svg">
<path d="M13 85V73H1V61H25V73H61V49H13V37H1V13H13V1H73V13H85V25H61V13H25V37H73V49H85V73H73V85H13ZM109 85V73H97V13H109V1H169V13H181V73H169V85H109ZM121 73H157V13H121V73ZM193 85V1H265V13H277V49H253V61H265V73H277V85H241V73H229V61H217V85H193ZM217 49H241V37H253V13H217V49ZM325 85V13H301V1H373V13H349V85H325ZM385 85V1H469V13H409V37H457V49H409V73H469V85H385ZM481 85V1H541V13H553V25H565V61H553V73H541V85H481ZM505 73H529V61H541V25H529V13H505V73ZM697 85V73H685V61H673V25H685V13H697V1H757V13H709V25H697V61H709V73H733V49H721V37H757V85H697ZM769 85V25H781V13H793V1H829V13H841V25H853V85H829V61H793V85H769ZM793 49H829V25H817V13H805V25H793V49ZM865 85V1H889V13H901V25H913V13H925V1H949V85H925V37H913V61H901V37H889V85H865ZM961 85V1H1045V13H985V37H1033V49H985V73H1045V85H961ZM1069 85V73H1057V61H1081V73H1117V49H1069V37H1057V13H1069V1H1129V13H1141V25H1117V13H1081V37H1129V49H1141V73H1129V85H1069Z" fill="#ECECEC"/>
<path d="M14 86V74H2V62H26V74H62V50H14V38H2V14H14V2H74V14H86V26H62V14H26V38H74V50H86V74H74V86H14ZM110 86V74H98V14H110V2H170V14H182V74H170V86H110ZM122 74H158V14H122V74ZM194 86V2H266V14H278V50H254V62H266V74H278V86H242V74H230V62H218V86H194ZM218 50H242V38H254V14H218V50ZM326 86V14H302V2H374V14H350V86H326ZM386 86V2H470V14H410V38H458V50H410V74H470V86H386ZM482 86V2H542V14H554V26H566V62H554V74H542V86H482ZM506 74H530V62H542V26H530V14H506V74ZM698 86V74H686V62H674V26H686V14H698V2H758V14H710V26H698V62H710V74H734V50H722V38H758V86H698ZM770 86V26H782V14H794V2H830V14H842V26H854V86H830V62H794V86H770ZM794 50H830V26H818V14H806V26H794V50ZM866 86V2H890V14H902V26H914V14H926V2H950V86H926V38H914V62H902V38H890V86H866ZM962 86V2H1046V14H986V38H1034V50H986V74H1046V86H962ZM1070 86V74H1058V62H1082V74H1118V50H1070V38H1058V14H1070V2H1130V14H1142V26H1118V14H1082V38H1130V50H1142V74H1130V86H1070Z" fill="#ECECEC"/>
<path d="M15 87V75H3V63H27V75H63V51H15V39H3V15H15V3H75V15H87V27H63V15H27V39H75V51H87V75H75V87H15ZM111 87V75H99V15H111V3H171V15H183V75H171V87H111ZM123 75H159V15H123V75ZM195 87V3H267V15H279V51H255V63H267V75H279V87H243V75H231V63H219V87H195ZM219 51H243V39H255V15H219V51ZM327 87V15H303V3H375V15H351V87H327ZM387 87V3H471V15H411V39H459V51H411V75H471V87H387ZM483 87V3H543V15H555V27H567V63H555V75H543V87H483ZM507 75H531V63H543V27H531V15H507V75ZM699 87V75H687V63H675V27H687V15H699V3H759V15H711V27H699V63H711V75H735V51H723V39H759V87H699ZM771 87V27H783V15H795V3H831V15H843V27H855V87H831V63H795V87H771ZM795 51H831V27H819V15H807V27H795V51ZM867 87V3H891V15H903V27H915V15H927V3H951V87H927V39H915V63H903V39H891V87H867ZM963 87V3H1047V15H987V39H1035V51H987V75H1047V87H963ZM1071 87V75H1059V63H1083V75H1119V51H1071V39H1059V15H1071V3H1131V15H1143V27H1119V15H1083V39H1131V51H1143V75H1131V87H1071Z" fill="#ECECEC"/>
<path d="M16 88V76H4V64H28V76H64V52H16V40H4V16H16V4H76V16H88V28H64V16H28V40H76V52H88V76H76V88H16ZM112 88V76H100V16H112V4H172V16H184V76H172V88H112ZM124 76H160V16H124V76ZM196 88V4H268V16H280V52H256V64H268V76H280V88H244V76H232V64H220V88H196ZM220 52H244V40H256V16H220V52ZM328 88V16H304V4H376V16H352V88H328ZM388 88V4H472V16H412V40H460V52H412V76H472V88H388ZM484 88V4H544V16H556V28H568V64H556V76H544V88H484ZM508 76H532V64H544V28H532V16H508V76ZM700 88V76H688V64H676V28H688V16H700V4H760V16H712V28H700V64H712V76H736V52H724V40H760V88H700ZM772 88V28H784V16H796V4H832V16H844V28H856V88H832V64H796V88H772ZM796 52H832V28H820V16H808V28H796V52ZM868 88V4H892V16H904V28H916V16H928V4H952V88H928V40H916V64H904V40H892V88H868ZM964 88V4H1048V16H988V40H1036V52H988V76H1048V88H964ZM1072 88V76H1060V64H1084V76H1120V52H1072V40H1060V16H1072V4H1132V16H1144V28H1120V16H1084V40H1132V52H1144V76H1132V88H1072Z" fill="#ECECEC"/>
<path d="M17 89V77H5V65H29V77H65V53H17V41H5V17H17V5H77V17H89V29H65V17H29V41H77V53H89V77H77V89H17ZM113 89V77H101V17H113V5H173V17H185V77H173V89H113ZM125 77H161V17H125V77ZM197 89V5H269V17H281V53H257V65H269V77H281V89H245V77H233V65H221V89H197ZM221 53H245V41H257V17H221V53ZM329 89V17H305V5H377V17H353V89H329ZM389 89V5H473V17H413V41H461V53H413V77H473V89H389ZM485 89V5H545V17H557V29H569V65H557V77H545V89H485ZM509 77H533V65H545V29H533V17H509V77ZM701 89V77H689V65H677V29H689V17H701V5H761V17H713V29H701V65H713V77H737V53H725V41H761V89H701ZM773 89V29H785V17H797V5H833V17H845V29H857V89H833V65H797V89H773ZM797 53H833V29H821V17H809V29H797V53ZM869 89V5H893V17H905V29H917V17H929V5H953V89H929V41H917V65H905V41H893V89H869ZM965 89V5H1049V17H989V41H1037V53H989V77H1049V89H965ZM1073 89V77H1061V65H1085V77H1121V53H1073V41H1061V17H1073V5H1133V17H1145V29H1121V17H1085V41H1133V53H1145V77H1133V89H1073Z" fill="#ECECEC"/>
<path d="M18 90V78H6V66H30V78H66V54H18V42H6V18H18V6H78V18H90V30H66V18H30V42H78V54H90V78H78V90H18ZM114 90V78H102V18H114V6H174V18H186V78H174V90H114ZM126 78H162V18H126V78ZM198 90V6H270V18H282V54H258V66H270V78H282V90H246V78H234V66H222V90H198ZM222 54H246V42H258V18H222V54ZM330 90V18H306V6H378V18H354V90H330ZM390 90V6H474V18H414V42H462V54H414V78H474V90H390ZM486 90V6H546V18H558V30H570V66H558V78H546V90H486ZM510 78H534V66H546V30H534V18H510V78ZM702 90V78H690V66H678V30H690V18H702V6H762V18H714V30H702V66H714V78H738V54H726V42H762V90H702ZM774 90V30H786V18H798V6H834V18H846V30H858V90H834V66H798V90H774ZM798 54H834V30H822V18H810V30H798V54ZM870 90V6H894V18H906V30H918V18H930V6H954V90H930V42H918V66H906V42H894V90H870ZM966 90V6H1050V18H990V42H1038V54H990V78H1050V90H966ZM1074 90V78H1062V66H1086V78H1122V54H1074V42H1062V18H1074V6H1134V18H1146V30H1122V18H1086V42H1134V54H1146V78H1134V90H1074Z" fill="#ECECEC"/>
<path d="M19 91V79H7V67H31V79H67V55H19V43H7V19H19V7H79V19H91V31H67V19H31V43H79V55H91V79H79V91H19ZM115 91V79H103V19H115V7H175V19H187V79H175V91H115ZM127 79H163V19H127V79ZM199 91V7H271V19H283V55H259V67H271V79H283V91H247V79H235V67H223V91H199ZM223 55H247V43H259V19H223V55ZM331 91V19H307V7H379V19H355V91H331ZM391 91V7H475V19H415V43H463V55H415V79H475V91H391ZM487 91V7H547V19H559V31H571V67H559V79H547V91H487ZM511 79H535V67H547V31H535V19H511V79ZM703 91V79H691V67H679V31H691V19H703V7H763V19H715V31H703V67H715V79H739V55H727V43H763V91H703ZM775 91V31H787V19H799V7H835V19H847V31H859V91H835V67H799V91H775ZM799 55H835V31H823V19H811V31H799V55ZM871 91V7H895V19H907V31H919V19H931V7H955V91H931V43H919V67H907V43H895V91H871ZM967 91V7H1051V19H991V43H1039V55H991V79H1051V91H967ZM1075 91V79H1063V67H1087V79H1123V55H1075V43H1063V19H1075V7H1135V19H1147V31H1123V19H1087V43H1135V55H1147V79H1135V91H1075Z" fill="#ECECEC"/>
<path d="M20 92V80H8V68H32V80H68V56H20V44H8V20H20V8H80V20H92V32H68V20H32V44H80V56H92V80H80V92H20ZM116 92V80H104V20H116V8H176V20H188V80H176V92H116ZM128 80H164V20H128V80ZM200 92V8H272V20H284V56H260V68H272V80H284V92H248V80H236V68H224V92H200ZM224 56H248V44H260V20H224V56ZM332 92V20H308V8H380V20H356V92H332ZM392 92V8H476V20H416V44H464V56H416V80H476V92H392ZM488 92V8H548V20H560V32H572V68H560V80H548V92H488ZM512 80H536V68H548V32H536V20H512V80ZM704 92V80H692V68H680V32H692V20H704V8H764V20H716V32H704V68H716V80H740V56H728V44H764V92H704ZM776 92V32H788V20H800V8H836V20H848V32H860V92H836V68H800V92H776ZM800 56H836V32H824V20H812V32H800V56ZM872 92V8H896V20H908V32H920V20H932V8H956V92H932V44H920V68H908V44H896V92H872ZM968 92V8H1052V20H992V44H1040V56H992V80H1052V92H968ZM1076 92V80H1064V68H1088V80H1124V56H1076V44H1064V20H1076V8H1136V20H1148V32H1124V20H1088V44H1136V56H1148V80H1136V92H1076Z" fill="#ECECEC"/>
<path d="M21 93V81H9V69H33V81H69V57H21V45H9V21H21V9H81V21H93V33H69V21H33V45H81V57H93V81H81V93H21ZM117 93V81H105V21H117V9H177V21H189V81H177V93H117ZM129 81H165V21H129V81ZM201 93V9H273V21H285V57H261V69H273V81H285V93H249V81H237V69H225V93H201ZM225 57H249V45H261V21H225V57ZM333 93V21H309V9H381V21H357V93H333ZM393 93V9H477V21H417V45H465V57H417V81H477V93H393ZM489 93V9H549V21H561V33H573V69H561V81H549V93H489ZM513 81H537V69H549V33H537V21H513V81ZM705 93V81H693V69H681V33H693V21H705V9H765V21H717V33H705V69H717V81H741V57H729V45H765V93H705ZM777 93V33H789V21H801V9H837V21H849V33H861V93H837V69H801V93H777ZM801 57H837V33H825V21H813V33H801V57ZM873 93V9H897V21H909V33H921V21H933V9H957V93H933V45H921V69H909V45H897V93H873ZM969 93V9H1053V21H993V45H1041V57H993V81H1053V93H969ZM1077 93V81H1065V69H1089V81H1125V57H1077V45H1065V21H1077V9H1137V21H1149V33H1125V21H1089V45H1137V57H1149V81H1137V93H1077Z" fill="#ECECEC"/>
<path d="M22 94V82H10V70H34V82H70V58H22V46H10V22H22V10H82V22H94V34H70V22H34V46H82V58H94V82H82V94H22ZM118 94V82H106V22H118V10H178V22H190V82H178V94H118ZM130 82H166V22H130V82ZM202 94V10H274V22H286V58H262V70H274V82H286V94H250V82H238V70H226V94H202ZM226 58H250V46H262V22H226V58ZM334 94V22H310V10H382V22H358V94H334ZM394 94V10H478V22H418V46H466V58H418V82H478V94H394ZM490 94V10H550V22H562V34H574V70H562V82H550V94H490ZM514 82H538V70H550V34H538V22H514V82ZM706 94V82H694V70H682V34H694V22H706V10H766V22H718V34H706V70H718V82H742V58H730V46H766V94H706ZM778 94V34H790V22H802V10H838V22H850V34H862V94H838V70H802V94H778ZM802 58H838V34H826V22H814V34H802V58ZM874 94V10H898V22H910V34H922V22H934V10H958V94H934V46H922V70H910V46H898V94H874ZM970 94V10H1054V22H994V46H1042V58H994V82H1054V94H970ZM1078 94V82H1066V70H1090V82H1126V58H1078V46H1066V22H1078V10H1138V22H1150V34H1126V22H1090V46H1138V58H1150V82H1138V94H1078Z" fill="#ECECEC"/>
<path d="M23 95V83H11V71H35V83H71V59H23V47H11V23H23V11H83V23H95V35H71V23H35V47H83V59H95V83H83V95H23ZM119 95V83H107V23H119V11H179V23H191V83H179V95H119ZM131 83H167V23H131V83ZM203 95V11H275V23H287V59H263V71H275V83H287V95H251V83H239V71H227V95H203ZM227 59H251V47H263V23H227V59ZM335 95V23H311V11H383V23H359V95H335ZM395 95V11H479V23H419V47H467V59H419V83H479V95H395ZM491 95V11H551V23H563V35H575V71H563V83H551V95H491ZM515 83H539V71H551V35H539V23H515V83ZM707 95V83H695V71H683V35H695V23H707V11H767V23H719V35H707V71H719V83H743V59H731V47H767V95H707ZM779 95V35H791V23H803V11H839V23H851V35H863V95H839V71H803V95H779ZM803 59H839V35H827V23H815V35H803V59ZM875 95V11H899V23H911V35H923V23H935V11H959V95H935V47H923V71H911V47H899V95H875ZM971 95V11H1055V23H995V47H1043V59H995V83H1055V95H971ZM1079 95V83H1067V71H1091V83H1127V59H1079V47H1067V23H1079V11H1139V23H1151V35H1127V23H1091V47H1139V59H1151V83H1139V95H1079Z" fill="#ECECEC"/>
<path d="M24 96V84H12V72H36V84H72V60H24V48H12V24H24V12H84V24H96V36H72V24H36V48H84V60H96V84H84V96H24ZM120 96V84H108V24H120V12H180V24H192V84H180V96H120ZM132 84H168V24H132V84ZM204 96V12H276V24H288V60H264V72H276V84H288V96H252V84H240V72H228V96H204ZM228 60H252V48H264V24H228V60ZM336 96V24H312V12H384V24H360V96H336ZM396 96V12H480V24H420V48H468V60H420V84H480V96H396ZM492 96V12H552V24H564V36H576V72H564V84H552V96H492ZM516 84H540V72H552V36H540V24H516V84ZM708 96V84H696V72H684V36H696V24H708V12H768V24H720V36H708V72H720V84H744V60H732V48H768V96H708ZM780 96V36H792V24H804V12H840V24H852V36H864V96H840V72H804V96H780ZM804 60H840V36H828V24H816V36H804V60ZM876 96V12H900V24H912V36H924V24H936V12H960V96H936V48H924V72H912V48H900V96H876ZM972 96V12H1056V24H996V48H1044V60H996V84H1056V96H972ZM1080 96V84H1068V72H1092V84H1128V60H1080V48H1068V24H1080V12H1140V24H1152V36H1128V24H1092V48H1140V60H1152V84H1140V96H1080Z" fill="#ECECEC"/>
<path d="M25 97V85H13V73H37V85H73V61H25V49H13V25H25V13H85V25H97V37H73V25H37V49H85V61H97V85H85V97H25ZM121 97V85H109V25H121V13H181V25H193V85H181V97H121ZM133 85H169V25H133V85ZM205 97V13H277V25H289V61H265V73H277V85H289V97H253V85H241V73H229V97H205ZM229 61H253V49H265V25H229V61ZM337 97V25H313V13H385V25H361V97H337ZM397 97V13H481V25H421V49H469V61H421V85H481V97H397ZM493 97V13H553V25H565V37H577V73H565V85H553V97H493ZM517 85H541V73H553V37H541V25H517V85ZM709 97V85H697V73H685V37H697V25H709V13H769V25H721V37H709V73H721V85H745V61H733V49H769V97H709ZM781 97V37H793V25H805V13H841V25H853V37H865V97H841V73H805V97H781ZM805 61H841V37H829V25H817V37H805V61ZM877 97V13H901V25H913V37H925V25H937V13H961V97H937V49H925V73H913V49H901V97H877ZM973 97V13H1057V25H997V49H1045V61H997V85H1057V97H973ZM1081 97V85H1069V73H1093V85H1129V61H1081V49H1069V25H1081V13H1141V25H1153V37H1129V25H1093V49H1141V61H1153V85H1141V97H1081Z" fill="#ECECEC"/>
<path d="M26 98V86H14V74H38V86H74V62H26V50H14V26H26V14H86V26H98V38H74V26H38V50H86V62H98V86H86V98H26ZM122 98V86H110V26H122V14H182V26H194V86H182V98H122ZM134 86H170V26H134V86ZM206 98V14H278V26H290V62H266V74H278V86H290V98H254V86H242V74H230V98H206ZM230 62H254V50H266V26H230V62ZM338 98V26H314V14H386V26H362V98H338ZM398 98V14H482V26H422V50H470V62H422V86H482V98H398ZM494 98V14H554V26H566V38H578V74H566V86H554V98H494ZM518 86H542V74H554V38H542V26H518V86ZM710 98V86H698V74H686V38H698V26H710V14H770V26H722V38H710V74H722V86H746V62H734V50H770V98H710ZM782 98V38H794V26H806V14H842V26H854V38H866V98H842V74H806V98H782ZM806 62H842V38H830V26H818V38H806V62ZM878 98V14H902V26H914V38H926V26H938V14H962V98H938V50H926V74H914V50H902V98H878ZM974 98V14H1058V26H998V50H1046V62H998V86H1058V98H974ZM1082 98V86H1070V74H1094V86H1130V62H1082V50H1070V26H1082V14H1142V26H1154V38H1130V26H1094V50H1142V62H1154V86H1142V98H1082Z" fill="#ECECEC"/>
<path d="M27 99V87H15V75H39V87H75V63H27V51H15V27H27V15H87V27H99V39H75V27H39V51H87V63H99V87H87V99H27ZM123 99V87H111V27H123V15H183V27H195V87H183V99H123ZM135 87H171V27H135V87ZM207 99V15H279V27H291V63H267V75H279V87H291V99H255V87H243V75H231V99H207ZM231 63H255V51H267V27H231V63ZM339 99V27H315V15H387V27H363V99H339ZM399 99V15H483V27H423V51H471V63H423V87H483V99H399ZM495 99V15H555V27H567V39H579V75H567V87H555V99H495ZM519 87H543V75H555V39H543V27H519V87ZM711 99V87H699V75H687V39H699V27H711V15H771V27H723V39H711V75H723V87H747V63H735V51H771V99H711ZM783 99V39H795V27H807V15H843V27H855V39H867V99H843V75H807V99H783ZM807 63H843V39H831V27H819V39H807V63ZM879 99V15H903V27H915V39H927V27H939V15H963V99H939V51H927V75H915V51H903V99H879ZM975 99V15H1059V27H999V51H1047V63H999V87H1059V99H975ZM1083 99V87H1071V75H1095V87H1131V63H1083V51H1071V27H1083V15H1143V27H1155V39H1131V27H1095V51H1143V63H1155V87H1143V99H1083Z" fill="#ECECEC"/>
<path d="M28 100V88H16V76H40V88H76V64H28V52H16V28H28V16H88V28H100V40H76V28H40V52H88V64H100V88H88V100H28ZM124 100V88H112V28H124V16H184V28H196V88H184V100H124ZM136 88H172V28H136V88ZM208 100V16H280V28H292V64H268V76H280V88H292V100H256V88H244V76H232V100H208ZM232 64H256V52H268V28H232V64ZM340 100V28H316V16H388V28H364V100H340ZM400 100V16H484V28H424V52H472V64H424V88H484V100H400ZM496 100V16H556V28H568V40H580V76H568V88H556V100H496ZM520 88H544V76H556V40H544V28H520V88ZM712 100V88H700V76H688V40H700V28H712V16H772V28H724V40H712V76H724V88H748V64H736V52H772V100H712ZM784 100V40H796V28H808V16H844V28H856V40H868V100H844V76H808V100H784ZM808 64H844V40H832V28H820V40H808V64ZM880 100V16H904V28H916V40H928V28H940V16H964V100H940V52H928V76H916V52H904V100H880ZM976 100V16H1060V28H1000V52H1048V64H1000V88H1060V100H976ZM1084 100V88H1072V76H1096V88H1132V64H1084V52H1072V28H1084V16H1144V28H1156V40H1132V28H1096V52H1144V64H1156V88H1144V100H1084Z" fill="#ECECEC"/>
<path d="M29 101V89H17V77H41V89H77V65H29V53H17V29H29V17H89V29H101V41H77V29H41V53H89V65H101V89H89V101H29ZM125 101V89H113V29H125V17H185V29H197V89H185V101H125ZM137 89H173V29H137V89ZM209 101V17H281V29H293V65H269V77H281V89H293V101H257V89H245V77H233V101H209ZM233 65H257V53H269V29H233V65ZM341 101V29H317V17H389V29H365V101H341ZM401 101V17H485V29H425V53H473V65H425V89H485V101H401ZM497 101V17H557V29H569V41H581V77H569V89H557V101H497ZM521 89H545V77H557V41H545V29H521V89ZM713 101V89H701V77H689V41H701V29H713V17H773V29H725V41H713V77H725V89H749V65H737V53H773V101H713ZM785 101V41H797V29H809V17H845V29H857V41H869V101H845V77H809V101H785ZM809 65H845V41H833V29H821V41H809V65ZM881 101V17H905V29H917V41H929V29H941V17H965V101H941V53H929V77H917V53H905V101H881ZM977 101V17H1061V29H1001V53H1049V65H1001V89H1061V101H977ZM1085 101V89H1073V77H1097V89H1133V65H1085V53H1073V29H1085V17H1145V29H1157V41H1133V29H1097V53H1145V65H1157V89H1145V101H1085Z" fill="#ECECEC"/>
<path d="M30 102V90H18V78H42V90H78V66H30V54H18V30H30V18H90V30H102V42H78V30H42V54H90V66H102V90H90V102H30ZM126 102V90H114V30H126V18H186V30H198V90H186V102H126ZM138 90H174V30H138V90ZM210 102V18H282V30H294V66H270V78H282V90H294V102H258V90H246V78H234V102H210ZM234 66H258V54H270V30H234V66ZM342 102V30H318V18H390V30H366V102H342ZM402 102V18H486V30H426V54H474V66H426V90H486V102H402ZM498 102V18H558V30H570V42H582V78H570V90H558V102H498ZM522 90H546V78H558V42H546V30H522V90ZM714 102V90H702V78H690V42H702V30H714V18H774V30H726V42H714V78H726V90H750V66H738V54H774V102H714ZM786 102V42H798V30H810V18H846V30H858V42H870V102H846V78H810V102H786ZM810 66H846V42H834V30H822V42H810V66ZM882 102V18H906V30H918V42H930V30H942V18H966V102H942V54H930V78H918V54H906V102H882ZM978 102V18H1062V30H1002V54H1050V66H1002V90H1062V102H978ZM1086 102V90H1074V78H1098V90H1134V66H1086V54H1074V30H1086V18H1146V30H1158V42H1134V30H1098V54H1146V66H1158V90H1146V102H1086Z" fill="#ECECEC"/>
<path d="M31 103V91H19V79H43V91H79V67H31V55H19V31H31V19H91V31H103V43H79V31H43V55H91V67H103V91H91V103H31ZM127 103V91H115V31H127V19H187V31H199V91H187V103H127ZM139 91H175V31H139V91ZM211 103V19H283V31H295V67H271V79H283V91H295V103H259V91H247V79H235V103H211ZM235 67H259V55H271V31H235V67ZM343 103V31H319V19H391V31H367V103H343ZM403 103V19H487V31H427V55H475V67H427V91H487V103H403ZM499 103V19H559V31H571V43H583V79H571V91H559V103H499ZM523 91H547V79H559V43H547V31H523V91ZM715 103V91H703V79H691V43H703V31H715V19H775V31H727V43H715V79H727V91H751V67H739V55H775V103H715ZM787 103V43H799V31H811V19H847V31H859V43H871V103H847V79H811V103H787ZM811 67H847V43H835V31H823V43H811V67ZM883 103V19H907V31H919V43H931V31H943V19H967V103H943V55H931V79H919V55H907V103H883ZM979 103V19H1063V31H1003V55H1051V67H1003V91H1063V103H979ZM1087 103V91H1075V79H1099V91H1135V67H1087V55H1075V31H1087V19H1147V31H1159V43H1135V31H1099V55H1147V67H1159V91H1147V103H1087Z" fill="#ECECEC"/>
<path d="M32 104V92H20V80H44V92H80V68H32V56H20V32H32V20H92V32H104V44H80V32H44V56H92V68H104V92H92V104H32ZM128 104V92H116V32H128V20H188V32H200V92H188V104H128ZM140 92H176V32H140V92ZM212 104V20H284V32H296V68H272V80H284V92H296V104H260V92H248V80H236V104H212ZM236 68H260V56H272V32H236V68ZM344 104V32H320V20H392V32H368V104H344ZM404 104V20H488V32H428V56H476V68H428V92H488V104H404ZM500 104V20H560V32H572V44H584V80H572V92H560V104H500ZM524 92H548V80H560V44H548V32H524V92ZM716 104V92H704V80H692V44H704V32H716V20H776V32H728V44H716V80H728V92H752V68H740V56H776V104H716ZM788 104V44H800V32H812V20H848V32H860V44H872V104H848V80H812V104H788ZM812 68H848V44H836V32H824V44H812V68ZM884 104V20H908V32H920V44H932V32H944V20H968V104H944V56H932V80H920V56H908V104H884ZM980 104V20H1064V32H1004V56H1052V68H1004V92H1064V104H980ZM1088 104V92H1076V80H1100V92H1136V68H1088V56H1076V32H1088V20H1148V32H1160V44H1136V32H1100V56H1148V68H1160V92H1148V104H1088Z" fill="#ECECEC"/>
<path d="M33 105V93H21V81H45V93H81V69H33V57H21V33H33V21H93V33H105V45H81V33H45V57H93V69H105V93H93V105H33ZM129 105V93H117V33H129V21H189V33H201V93H189V105H129ZM141 93H177V33H141V93ZM213 105V21H285V33H297V69H273V81H285V93H297V105H261V93H249V81H237V105H213ZM237 69H261V57H273V33H237V69ZM345 105V33H321V21H393V33H369V105H345ZM405 105V21H489V33H429V57H477V69H429V93H489V105H405ZM501 105V21H561V33H573V45H585V81H573V93H561V105H501ZM525 93H549V81H561V45H549V33H525V93ZM717 105V93H705V81H693V45H705V33H717V21H777V33H729V45H717V81H729V93H753V69H741V57H777V105H717ZM789 105V45H801V33H813V21H849V33H861V45H873V105H849V81H813V105H789ZM813 69H849V45H837V33H825V45H813V69ZM885 105V21H909V33H921V45H933V33H945V21H969V105H945V57H933V81H921V57H909V105H885ZM981 105V21H1065V33H1005V57H1053V69H1005V93H1065V105H981ZM1089 105V93H1077V81H1101V93H1137V69H1089V57H1077V33H1089V21H1149V33H1161V45H1137V33H1101V57H1149V69H1161V93H1149V105H1089Z" fill="#ECECEC"/>
<path d="M34 106V94H22V82H46V94H82V70H34V58H22V34H34V22H94V34H106V46H82V34H46V58H94V70H106V94H94V106H34ZM130 106V94H118V34H130V22H190V34H202V94H190V106H130ZM142 94H178V34H142V94ZM214 106V22H286V34H298V70H274V82H286V94H298V106H262V94H250V82H238V106H214ZM238 70H262V58H274V34H238V70ZM346 106V34H322V22H394V34H370V106H346ZM406 106V22H490V34H430V58H478V70H430V94H490V106H406ZM502 106V22H562V34H574V46H586V82H574V94H562V106H502ZM526 94H550V82H562V46H550V34H526V94ZM718 106V94H706V82H694V46H706V34H718V22H778V34H730V46H718V82H730V94H754V70H742V58H778V106H718ZM790 106V46H802V34H814V22H850V34H862V46H874V106H850V82H814V106H790ZM814 70H850V46H838V34H826V46H814V70ZM886 106V22H910V34H922V46H934V34H946V22H970V106H946V58H934V82H922V58H910V106H886ZM982 106V22H1066V34H1006V58H1054V70H1006V94H1066V106H982ZM1090 106V94H1078V82H1102V94H1138V70H1090V58H1078V34H1090V22H1150V34H1162V46H1138V34H1102V58H1150V70H1162V94H1150V106H1090Z" fill="#ECECEC"/>
<path d="M35 107V95H23V83H47V95H83V71H35V59H23V35H35V23H95V35H107V47H83V35H47V59H95V71H107V95H95V107H35ZM131 107V95H119V35H131V23H191V35H203V95H191V107H131ZM143 95H179V35H143V95ZM215 107V23H287V35H299V71H275V83H287V95H299V107H263V95H251V83H239V107H215ZM239 71H263V59H275V35H239V71ZM347 107V35H323V23H395V35H371V107H347ZM407 107V23H491V35H431V59H479V71H431V95H491V107H407ZM503 107V23H563V35H575V47H587V83H575V95H563V107H503ZM527 95H551V83H563V47H551V35H527V95ZM719 107V95H707V83H695V47H707V35H719V23H779V35H731V47H719V83H731V95H755V71H743V59H779V107H719ZM791 107V47H803V35H815V23H851V35H863V47H875V107H851V83H815V107H791ZM815 71H851V47H839V35H827V47H815V71ZM887 107V23H911V35H923V47H935V35H947V23H971V107H947V59H935V83H923V59H911V107H887ZM983 107V23H1067V35H1007V59H1055V71H1007V95H1067V107H983ZM1091 107V95H1079V83H1103V95H1139V71H1091V59H1079V35H1091V23H1151V35H1163V47H1139V35H1103V59H1151V71H1163V95H1151V107H1091Z" fill="#ECECEC"/>
<path d="M36 108V96H24V84H48V96H84V72H36V60H24V36H36V24H96V36H108V48H84V36H48V60H96V72H108V96H96V108H36ZM132 108V96H120V36H132V24H192V36H204V96H192V108H132ZM144 96H180V36H144V96ZM216 108V24H288V36H300V72H276V84H288V96H300V108H264V96H252V84H240V108H216ZM240 72H264V60H276V36H240V72ZM348 108V36H324V24H396V36H372V108H348ZM408 108V24H492V36H432V60H480V72H432V96H492V108H408ZM504 108V24H564V36H576V48H588V84H576V96H564V108H504ZM528 96H552V84H564V48H552V36H528V96ZM720 108V96H708V84H696V48H708V36H720V24H780V36H732V48H720V84H732V96H756V72H744V60H780V108H720ZM792 108V48H804V36H816V24H852V36H864V48H876V108H852V84H816V108H792ZM816 72H852V48H840V36H828V48H816V72ZM888 108V24H912V36H924V48H936V36H948V24H972V108H948V60H936V84H924V60H912V108H888ZM984 108V24H1068V36H1008V60H1056V72H1008V96H1068V108H984ZM1092 108V96H1080V84H1104V96H1140V72H1092V60H1080V36H1092V24H1152V36H1164V48H1140V36H1104V60H1152V72H1164V96H1152V108H1092Z" fill="#ECECEC"/>
<path d="M37 109V97H25V85H49V97H85V73H37V61H25V37H37V25H97V37H109V49H85V37H49V61H97V73H109V97H97V109H37ZM133 109V97H121V37H133V25H193V37H205V97H193V109H133ZM145 97H181V37H145V97ZM217 109V25H289V37H301V73H277V85H289V97H301V109H265V97H253V85H241V109H217ZM241 73H265V61H277V37H241V73ZM349 109V37H325V25H397V37H373V109H349ZM409 109V25H493V37H433V61H481V73H433V97H493V109H409ZM505 109V25H565V37H577V49H589V85H577V97H565V109H505ZM529 97H553V85H565V49H553V37H529V97ZM721 109V97H709V85H697V49H709V37H721V25H781V37H733V49H721V85H733V97H757V73H745V61H781V109H721ZM793 109V49H805V37H817V25H853V37H865V49H877V109H853V85H817V109H793ZM817 73H853V49H841V37H829V49H817V73ZM889 109V25H913V37H925V49H937V37H949V25H973V109H949V61H937V85H925V61H913V109H889ZM985 109V25H1069V37H1009V61H1057V73H1009V97H1069V109H985ZM1093 109V97H1081V85H1105V97H1141V73H1093V61H1081V37H1093V25H1153V37H1165V49H1141V37H1105V61H1153V73H1165V97H1153V109H1093Z" fill="#ECECEC"/>
<path d="M12 84V72H0V60H24V72H60V48H12V36H0V12H12V0H72V12H84V24H60V12H24V36H72V48H84V72H72V84H12ZM108 84V72H96V12H108V0H168V12H180V72H168V84H108ZM120 72H156V12H120V72ZM192 84V0H264V12H276V48H252V60H264V72H276V84H240V72H228V60H216V84H192ZM216 48H240V36H252V12H216V48ZM324 84V12H300V0H372V12H348V84H324ZM384 84V0H468V12H408V36H456V48H408V72H468V84H384ZM480 84V0H540V12H552V24H564V60H552V72H540V84H480ZM504 72H528V60H540V24H528V12H504V72ZM696 84V72H684V60H672V24H684V12H696V0H756V12H708V24H696V60H708V72H732V48H720V36H756V84H696ZM768 84V24H780V12H792V0H828V12H840V24H852V84H828V60H792V84H768ZM792 48H828V24H816V12H804V24H792V48ZM864 84V0H888V12H900V24H912V12H924V0H948V84H924V36H912V60H900V36H888V84H864ZM960 84V0H1044V12H984V36H1032V48H984V72H1044V84H960ZM1068 84V72H1056V60H1080V72H1116V48H1068V36H1056V12H1068V0H1128V12H1140V24H1116V12H1080V36H1128V48H1140V72H1128V84H1068Z" fill="#9340C6"/>
</svg>
