<svg width="736" height="141" viewBox="0 0 736 141" fill="none" xmlns="http://www.w3.org/2000/svg">
<path d="M21.16 81.32C21.16 85.736 24.328 87.944 30.664 87.944C37.064 87.944 40.264 85.96 40.264 81.992C40.264 79.88 39.176 78.152 37 76.808C34.824 75.464 32.168 74.344 29.032 73.448C25.96 72.552 22.856 71.528 19.72 70.376C16.648 69.16 14.024 67.304 11.848 64.808C9.672 62.248 8.584 59.08 8.584 55.304C8.584 39.24 18.92 31.208 39.592 31.208C47.144 31.208 52.84 32.648 56.68 35.528C60.584 38.344 62.536 42.28 62.536 47.336C62.536 49.192 62.28 50.984 61.768 52.712C61.32 54.376 60.84 55.56 60.328 56.264L59.56 57.416H42.568C43.976 55.944 44.68 54.088 44.68 51.848C44.68 47.688 41.96 45.608 36.52 45.608C29.672 45.608 26.248 47.784 26.248 52.136C26.248 54.312 27.336 56.04 29.512 57.32C31.688 58.6 34.312 59.624 37.384 60.392C40.52 61.096 43.656 61.992 46.792 63.08C49.928 64.168 52.584 65.992 54.76 68.552C56.936 71.048 58.024 74.312 58.024 78.344C58.024 86.472 55.592 92.52 50.728 96.488C45.864 100.392 38.376 102.344 28.264 102.344C18.152 102.344 11.24 100.552 7.528 96.968C4.776 94.28 3.4 90.568 3.4 85.832C3.4 84.04 3.592 82.088 3.976 79.976L4.264 78.44H21.544L21.352 79.592C21.224 80.232 21.16 80.808 21.16 81.32ZM102.418 31.208C117.842 31.208 125.554 37.512 125.554 50.12C125.554 52.232 125.33 54.504 124.882 56.936L121.522 76.136C119.986 85.032 116.658 91.624 111.538 95.912C106.418 100.2 99.218 102.344 89.938 102.344C80.658 102.344 74.194 100.2 70.546 95.912C68.05 92.968 66.802 88.904 66.802 83.72C66.802 81.416 67.058 78.888 67.57 76.136L70.93 56.936C73.938 39.784 84.434 31.208 102.418 31.208ZM92.53 87.464C95.73 87.464 98.29 86.632 100.21 84.968C102.13 83.304 103.474 80.232 104.242 75.752L107.506 57.32C107.698 56.04 107.794 54.888 107.794 53.864C107.794 48.68 105.17 46.088 99.922 46.088C93.33 46.216 89.394 49.96 88.114 57.32L84.85 75.752C84.594 77.352 84.466 79.016 84.466 80.744C84.466 85.224 87.154 87.464 92.53 87.464ZM168.856 31.88C176.152 31.88 181.336 33.48 184.408 36.68C186.712 39.112 187.864 42.184 187.864 45.896C187.864 47.176 187.736 48.52 187.48 49.928L186.136 57.416C185.368 61.576 184.024 64.936 182.104 67.496C180.248 70.056 178.168 71.88 175.864 72.968L184.6 101H165.208L157.144 75.176H151.192L147.256 101H128.824L141.016 31.88H168.856ZM162.808 46.856H155.608L153.112 63.56H159.832C163.224 63.56 165.656 62.76 167.128 61.16C168.6 59.496 169.336 57.32 169.336 54.632C169.336 49.448 167.16 46.856 162.808 46.856ZM259.335 46.856H235.719L226.215 101H208.839L218.343 46.856H194.631L197.319 31.88H262.023L259.335 46.856ZM305.922 101H257.73L269.922 31.88H318.114L315.426 46.856H284.514L282.306 59.816H307.842L305.154 74.792H279.618L277.698 86.024H308.61L305.922 101ZM356.052 31.88C364.436 31.88 370.42 33.992 374.004 38.216C376.628 41.416 377.94 45.416 377.94 50.216C377.94 51.944 377.78 53.768 377.46 55.688L373.716 77.096C372.436 84.328 369.3 90.12 364.308 94.472C359.316 98.824 352.852 101 344.916 101H316.98L329.172 31.88H356.052ZM350.004 46.856H343.764L336.948 86.024H346.068C349.076 86.024 351.412 85.224 353.076 83.624C354.804 81.96 355.988 79.272 356.628 75.56L359.412 59.816C359.668 58.408 359.796 57.128 359.796 55.976C359.796 49.896 356.532 46.856 350.004 46.856ZM428.358 102.344C419.27 102.344 412.998 100.232 409.542 96.008C407.174 93.064 405.99 89.032 405.99 83.912C405.99 81.544 406.246 78.952 406.758 76.136L410.118 56.936C413.126 39.784 423.622 31.208 441.606 31.208C449.03 31.208 454.662 32.808 458.502 36.008C462.342 39.144 464.262 43.464 464.262 48.968C464.262 51.208 463.942 53.48 463.302 55.784C462.726 58.088 462.15 59.816 461.574 60.968L460.614 62.696H443.622C445.286 60.392 446.118 57.736 446.118 54.728C446.118 48.968 443.718 46.088 438.918 46.088C432.454 46.088 428.582 49.832 427.302 57.32L424.038 75.752C423.718 77.48 423.558 79.176 423.558 80.84C423.558 85.256 426.15 87.464 431.334 87.464C436.582 87.464 439.942 84.84 441.414 79.592H433.542L435.462 68.936H460.902L459.366 77.192L458.885 79.976C456.198 94.888 446.022 102.344 428.358 102.344ZM500.031 101L500.607 85.928H484.575L479.871 101H461.535L486.207 31.88H517.887L518.271 101H500.031ZM496.095 48.68L488.511 73.064H501.087L502.143 48.68H496.095ZM557.595 31.88L567.867 65L589.947 31.88H608.091L595.899 101H578.523L585.435 62.024L570.651 85.256H558.075L551.547 62.024L544.635 101H527.355L539.547 31.88H557.595ZM657.766 101H609.574L621.766 31.88H669.958L667.27 46.856H636.358L634.15 59.816H659.686L656.998 74.792H631.462L629.542 86.024H660.454L657.766 101ZM687.16 81.32C687.16 85.736 690.328 87.944 696.664 87.944C703.064 87.944 706.264 85.96 706.264 81.992C706.264 79.88 705.176 78.152 703 76.808C700.824 75.464 698.168 74.344 695.032 73.448C691.96 72.552 688.856 71.528 685.72 70.376C682.648 69.16 680.024 67.304 677.848 64.808C675.672 62.248 674.584 59.08 674.584 55.304C674.584 39.24 684.92 31.208 705.592 31.208C713.144 31.208 718.84 32.648 722.68 35.528C726.584 38.344 728.536 42.28 728.536 47.336C728.536 49.192 728.28 50.984 727.768 52.712C727.32 54.376 726.84 55.56 726.328 56.264L725.56 57.416H708.568C709.976 55.944 710.68 54.088 710.68 51.848C710.68 47.688 707.96 45.608 702.52 45.608C695.672 45.608 692.248 47.784 692.248 52.136C692.248 54.312 693.336 56.04 695.512 57.32C697.688 58.6 700.312 59.624 703.384 60.392C706.52 61.096 709.656 61.992 712.792 63.08C715.928 64.168 718.584 65.992 720.76 68.552C722.936 71.048 724.024 74.312 724.024 78.344C724.024 86.472 721.592 92.52 716.728 96.488C711.864 100.392 704.376 102.344 694.264 102.344C684.152 102.344 677.24 100.552 673.528 96.968C670.776 94.28 669.4 90.568 669.4 85.832C669.4 84.04 669.592 82.088 669.976 79.976L670.264 78.44H687.544L687.352 79.592C687.224 80.232 687.16 80.808 687.16 81.32Z" fill="white"/>
<path d="M22.16 82.32C22.16 86.736 25.328 88.944 31.664 88.944C38.064 88.944 41.264 86.96 41.264 82.992C41.264 80.88 40.176 79.152 38 77.808C35.824 76.464 33.168 75.344 30.032 74.448C26.96 73.552 23.856 72.528 20.72 71.376C17.648 70.16 15.024 68.304 12.848 65.808C10.672 63.248 9.584 60.08 9.584 56.304C9.584 40.24 19.92 32.208 40.592 32.208C48.144 32.208 53.84 33.648 57.68 36.528C61.584 39.344 63.536 43.28 63.536 48.336C63.536 50.192 63.28 51.984 62.768 53.712C62.32 55.376 61.84 56.56 61.328 57.264L60.56 58.416H43.568C44.976 56.944 45.68 55.088 45.68 52.848C45.68 48.688 42.96 46.608 37.52 46.608C30.672 46.608 27.248 48.784 27.248 53.136C27.248 55.312 28.336 57.04 30.512 58.32C32.688 59.6 35.312 60.624 38.384 61.392C41.52 62.096 44.656 62.992 47.792 64.08C50.928 65.168 53.584 66.992 55.76 69.552C57.936 72.048 59.024 75.312 59.024 79.344C59.024 87.472 56.592 93.52 51.728 97.488C46.864 101.392 39.376 103.344 29.264 103.344C19.152 103.344 12.24 101.552 8.528 97.968C5.776 95.28 4.4 91.568 4.4 86.832C4.4 85.04 4.592 83.088 4.976 80.976L5.264 79.44H22.544L22.352 80.592C22.224 81.232 22.16 81.808 22.16 82.32ZM103.418 32.208C118.842 32.208 126.554 38.512 126.554 51.12C126.554 53.232 126.33 55.504 125.882 57.936L122.522 77.136C120.986 86.032 117.658 92.624 112.538 96.912C107.418 101.2 100.218 103.344 90.938 103.344C81.658 103.344 75.194 101.2 71.546 96.912C69.05 93.968 67.802 89.904 67.802 84.72C67.802 82.416 68.058 79.888 68.57 77.136L71.93 57.936C74.938 40.784 85.434 32.208 103.418 32.208ZM93.53 88.464C96.73 88.464 99.29 87.632 101.21 85.968C103.13 84.304 104.474 81.232 105.242 76.752L108.506 58.32C108.698 57.04 108.794 55.888 108.794 54.864C108.794 49.68 106.17 47.088 100.922 47.088C94.33 47.216 90.394 50.96 89.114 58.32L85.85 76.752C85.594 78.352 85.466 80.016 85.466 81.744C85.466 86.224 88.154 88.464 93.53 88.464ZM169.856 32.88C177.152 32.88 182.336 34.48 185.408 37.68C187.712 40.112 188.864 43.184 188.864 46.896C188.864 48.176 188.736 49.52 188.48 50.928L187.136 58.416C186.368 62.576 185.024 65.936 183.104 68.496C181.248 71.056 179.168 72.88 176.864 73.968L185.6 102H166.208L158.144 76.176H152.192L148.256 102H129.824L142.016 32.88H169.856ZM163.808 47.856H156.608L154.112 64.56H160.832C164.224 64.56 166.656 63.76 168.128 62.16C169.6 60.496 170.336 58.32 170.336 55.632C170.336 50.448 168.16 47.856 163.808 47.856ZM260.335 47.856H236.719L227.215 102H209.839L219.343 47.856H195.631L198.319 32.88H263.023L260.335 47.856ZM306.922 102H258.73L270.922 32.88H319.114L316.426 47.856H285.514L283.306 60.816H308.842L306.154 75.792H280.618L278.698 87.024H309.61L306.922 102ZM357.052 32.88C365.436 32.88 371.42 34.992 375.004 39.216C377.628 42.416 378.94 46.416 378.94 51.216C378.94 52.944 378.78 54.768 378.46 56.688L374.716 78.096C373.436 85.328 370.3 91.12 365.308 95.472C360.316 99.824 353.852 102 345.916 102H317.98L330.172 32.88H357.052ZM351.004 47.856H344.764L337.948 87.024H347.068C350.076 87.024 352.412 86.224 354.076 84.624C355.804 82.96 356.988 80.272 357.628 76.56L360.412 60.816C360.668 59.408 360.796 58.128 360.796 56.976C360.796 50.896 357.532 47.856 351.004 47.856ZM429.358 103.344C420.27 103.344 413.998 101.232 410.542 97.008C408.174 94.064 406.99 90.032 406.99 84.912C406.99 82.544 407.246 79.952 407.758 77.136L411.118 57.936C414.126 40.784 424.622 32.208 442.606 32.208C450.03 32.208 455.662 33.808 459.502 37.008C463.342 40.144 465.262 44.464 465.262 49.968C465.262 52.208 464.942 54.48 464.302 56.784C463.726 59.088 463.15 60.816 462.574 61.968L461.614 63.696H444.622C446.286 61.392 447.118 58.736 447.118 55.728C447.118 49.968 444.718 47.088 439.918 47.088C433.454 47.088 429.582 50.832 428.302 58.32L425.038 76.752C424.718 78.48 424.558 80.176 424.558 81.84C424.558 86.256 427.15 88.464 432.334 88.464C437.582 88.464 440.942 85.84 442.414 80.592H434.542L436.462 69.936H461.902L460.366 78.192L459.885 80.976C457.198 95.888 447.022 103.344 429.358 103.344ZM501.031 102L501.607 86.928H485.575L480.871 102H462.535L487.207 32.88H518.887L519.271 102H501.031ZM497.095 49.68L489.511 74.064H502.087L503.143 49.68H497.095ZM558.595 32.88L568.867 66L590.947 32.88H609.091L596.899 102H579.523L586.435 63.024L571.651 86.256H559.075L552.547 63.024L545.635 102H528.355L540.547 32.88H558.595ZM658.766 102H610.574L622.766 32.88H670.958L668.27 47.856H637.358L635.15 60.816H660.686L657.998 75.792H632.462L630.542 87.024H661.454L658.766 102ZM688.16 82.32C688.16 86.736 691.328 88.944 697.664 88.944C704.064 88.944 707.264 86.96 707.264 82.992C707.264 80.88 706.176 79.152 704 77.808C701.824 76.464 699.168 75.344 696.032 74.448C692.96 73.552 689.856 72.528 686.72 71.376C683.648 70.16 681.024 68.304 678.848 65.808C676.672 63.248 675.584 60.08 675.584 56.304C675.584 40.24 685.92 32.208 706.592 32.208C714.144 32.208 719.84 33.648 723.68 36.528C727.584 39.344 729.536 43.28 729.536 48.336C729.536 50.192 729.28 51.984 728.768 53.712C728.32 55.376 727.84 56.56 727.328 57.264L726.56 58.416H709.568C710.976 56.944 711.68 55.088 711.68 52.848C711.68 48.688 708.96 46.608 703.52 46.608C696.672 46.608 693.248 48.784 693.248 53.136C693.248 55.312 694.336 57.04 696.512 58.32C698.688 59.6 701.312 60.624 704.384 61.392C707.52 62.096 710.656 62.992 713.792 64.08C716.928 65.168 719.584 66.992 721.76 69.552C723.936 72.048 725.024 75.312 725.024 79.344C725.024 87.472 722.592 93.52 717.728 97.488C712.864 101.392 705.376 103.344 695.264 103.344C685.152 103.344 678.24 101.552 674.528 97.968C671.776 95.28 670.4 91.568 670.4 86.832C670.4 85.04 670.592 83.088 670.976 80.976L671.264 79.44H688.544L688.352 80.592C688.224 81.232 688.16 81.808 688.16 82.32Z" fill="white"/>
<path d="M23.16 83.32C23.16 87.736 26.328 89.944 32.664 89.944C39.064 89.944 42.264 87.96 42.264 83.992C42.264 81.88 41.176 80.152 39 78.808C36.824 77.464 34.168 76.344 31.032 75.448C27.96 74.552 24.856 73.528 21.72 72.376C18.648 71.16 16.024 69.304 13.848 66.808C11.672 64.248 10.584 61.08 10.584 57.304C10.584 41.24 20.92 33.208 41.592 33.208C49.144 33.208 54.84 34.648 58.68 37.528C62.584 40.344 64.536 44.28 64.536 49.336C64.536 51.192 64.28 52.984 63.768 54.712C63.32 56.376 62.84 57.56 62.328 58.264L61.56 59.416H44.568C45.976 57.944 46.68 56.088 46.68 53.848C46.68 49.688 43.96 47.608 38.52 47.608C31.672 47.608 28.248 49.784 28.248 54.136C28.248 56.312 29.336 58.04 31.512 59.32C33.688 60.6 36.312 61.624 39.384 62.392C42.52 63.096 45.656 63.992 48.792 65.08C51.928 66.168 54.584 67.992 56.76 70.552C58.936 73.048 60.024 76.312 60.024 80.344C60.024 88.472 57.592 94.52 52.728 98.488C47.864 102.392 40.376 104.344 30.264 104.344C20.152 104.344 13.24 102.552 9.528 98.968C6.776 96.28 5.4 92.568 5.4 87.832C5.4 86.04 5.592 84.088 5.976 81.976L6.264 80.44H23.544L23.352 81.592C23.224 82.232 23.16 82.808 23.16 83.32ZM104.418 33.208C119.842 33.208 127.554 39.512 127.554 52.12C127.554 54.232 127.33 56.504 126.882 58.936L123.522 78.136C121.986 87.032 118.658 93.624 113.538 97.912C108.418 102.2 101.218 104.344 91.938 104.344C82.658 104.344 76.194 102.2 72.546 97.912C70.05 94.968 68.802 90.904 68.802 85.72C68.802 83.416 69.058 80.888 69.57 78.136L72.93 58.936C75.938 41.784 86.434 33.208 104.418 33.208ZM94.53 89.464C97.73 89.464 100.29 88.632 102.21 86.968C104.13 85.304 105.474 82.232 106.242 77.752L109.506 59.32C109.698 58.04 109.794 56.888 109.794 55.864C109.794 50.68 107.17 48.088 101.922 48.088C95.33 48.216 91.394 51.96 90.114 59.32L86.85 77.752C86.594 79.352 86.466 81.016 86.466 82.744C86.466 87.224 89.154 89.464 94.53 89.464ZM170.856 33.88C178.152 33.88 183.336 35.48 186.408 38.68C188.712 41.112 189.864 44.184 189.864 47.896C189.864 49.176 189.736 50.52 189.48 51.928L188.136 59.416C187.368 63.576 186.024 66.936 184.104 69.496C182.248 72.056 180.168 73.88 177.864 74.968L186.6 103H167.208L159.144 77.176H153.192L149.256 103H130.824L143.016 33.88H170.856ZM164.808 48.856H157.608L155.112 65.56H161.832C165.224 65.56 167.656 64.76 169.128 63.16C170.6 61.496 171.336 59.32 171.336 56.632C171.336 51.448 169.16 48.856 164.808 48.856ZM261.335 48.856H237.719L228.215 103H210.839L220.343 48.856H196.631L199.319 33.88H264.023L261.335 48.856ZM307.922 103H259.73L271.922 33.88H320.114L317.426 48.856H286.514L284.306 61.816H309.842L307.154 76.792H281.618L279.698 88.024H310.61L307.922 103ZM358.052 33.88C366.436 33.88 372.42 35.992 376.004 40.216C378.628 43.416 379.94 47.416 379.94 52.216C379.94 53.944 379.78 55.768 379.46 57.688L375.716 79.096C374.436 86.328 371.3 92.12 366.308 96.472C361.316 100.824 354.852 103 346.916 103H318.98L331.172 33.88H358.052ZM352.004 48.856H345.764L338.948 88.024H348.068C351.076 88.024 353.412 87.224 355.076 85.624C356.804 83.96 357.988 81.272 358.628 77.56L361.412 61.816C361.668 60.408 361.796 59.128 361.796 57.976C361.796 51.896 358.532 48.856 352.004 48.856ZM430.358 104.344C421.27 104.344 414.998 102.232 411.542 98.008C409.174 95.064 407.99 91.032 407.99 85.912C407.99 83.544 408.246 80.952 408.758 78.136L412.118 58.936C415.126 41.784 425.622 33.208 443.606 33.208C451.03 33.208 456.662 34.808 460.502 38.008C464.342 41.144 466.262 45.464 466.262 50.968C466.262 53.208 465.942 55.48 465.302 57.784C464.726 60.088 464.15 61.816 463.574 62.968L462.614 64.696H445.622C447.286 62.392 448.118 59.736 448.118 56.728C448.118 50.968 445.718 48.088 440.918 48.088C434.454 48.088 430.582 51.832 429.302 59.32L426.038 77.752C425.718 79.48 425.558 81.176 425.558 82.84C425.558 87.256 428.15 89.464 433.334 89.464C438.582 89.464 441.942 86.84 443.414 81.592H435.542L437.462 70.936H462.902L461.366 79.192L460.885 81.976C458.198 96.888 448.022 104.344 430.358 104.344ZM502.031 103L502.607 87.928H486.575L481.871 103H463.535L488.207 33.88H519.887L520.271 103H502.031ZM498.095 50.68L490.511 75.064H503.087L504.143 50.68H498.095ZM559.595 33.88L569.867 67L591.947 33.88H610.091L597.899 103H580.523L587.435 64.024L572.651 87.256H560.075L553.547 64.024L546.635 103H529.355L541.547 33.88H559.595ZM659.766 103H611.574L623.766 33.88H671.958L669.27 48.856H638.358L636.15 61.816H661.686L658.998 76.792H633.462L631.542 88.024H662.454L659.766 103ZM689.16 83.32C689.16 87.736 692.328 89.944 698.664 89.944C705.064 89.944 708.264 87.96 708.264 83.992C708.264 81.88 707.176 80.152 705 78.808C702.824 77.464 700.168 76.344 697.032 75.448C693.96 74.552 690.856 73.528 687.72 72.376C684.648 71.16 682.024 69.304 679.848 66.808C677.672 64.248 676.584 61.08 676.584 57.304C676.584 41.24 686.92 33.208 707.592 33.208C715.144 33.208 720.84 34.648 724.68 37.528C728.584 40.344 730.536 44.28 730.536 49.336C730.536 51.192 730.28 52.984 729.768 54.712C729.32 56.376 728.84 57.56 728.328 58.264L727.56 59.416H710.568C711.976 57.944 712.68 56.088 712.68 53.848C712.68 49.688 709.96 47.608 704.52 47.608C697.672 47.608 694.248 49.784 694.248 54.136C694.248 56.312 695.336 58.04 697.512 59.32C699.688 60.6 702.312 61.624 705.384 62.392C708.52 63.096 711.656 63.992 714.792 65.08C717.928 66.168 720.584 67.992 722.76 70.552C724.936 73.048 726.024 76.312 726.024 80.344C726.024 88.472 723.592 94.52 718.728 98.488C713.864 102.392 706.376 104.344 696.264 104.344C686.152 104.344 679.24 102.552 675.528 98.968C672.776 96.28 671.4 92.568 671.4 87.832C671.4 86.04 671.592 84.088 671.976 81.976L672.264 80.44H689.544L689.352 81.592C689.224 82.232 689.16 82.808 689.16 83.32Z" fill="white"/>
<path d="M24.16 84.32C24.16 88.736 27.328 90.944 33.664 90.944C40.064 90.944 43.264 88.96 43.264 84.992C43.264 82.88 42.176 81.152 40 79.808C37.824 78.464 35.168 77.344 32.032 76.448C28.96 75.552 25.856 74.528 22.72 73.376C19.648 72.16 17.024 70.304 14.848 67.808C12.672 65.248 11.584 62.08 11.584 58.304C11.584 42.24 21.92 34.208 42.592 34.208C50.144 34.208 55.84 35.648 59.68 38.528C63.584 41.344 65.536 45.28 65.536 50.336C65.536 52.192 65.28 53.984 64.768 55.712C64.32 57.376 63.84 58.56 63.328 59.264L62.56 60.416H45.568C46.976 58.944 47.68 57.088 47.68 54.848C47.68 50.688 44.96 48.608 39.52 48.608C32.672 48.608 29.248 50.784 29.248 55.136C29.248 57.312 30.336 59.04 32.512 60.32C34.688 61.6 37.312 62.624 40.384 63.392C43.52 64.096 46.656 64.992 49.792 66.08C52.928 67.168 55.584 68.992 57.76 71.552C59.936 74.048 61.024 77.312 61.024 81.344C61.024 89.472 58.592 95.52 53.728 99.488C48.864 103.392 41.376 105.344 31.264 105.344C21.152 105.344 14.24 103.552 10.528 99.968C7.776 97.28 6.4 93.568 6.4 88.832C6.4 87.04 6.592 85.088 6.976 82.976L7.264 81.44H24.544L24.352 82.592C24.224 83.232 24.16 83.808 24.16 84.32ZM105.418 34.208C120.842 34.208 128.554 40.512 128.554 53.12C128.554 55.232 128.33 57.504 127.882 59.936L124.522 79.136C122.986 88.032 119.658 94.624 114.538 98.912C109.418 103.2 102.218 105.344 92.938 105.344C83.658 105.344 77.194 103.2 73.546 98.912C71.05 95.968 69.802 91.904 69.802 86.72C69.802 84.416 70.058 81.888 70.57 79.136L73.93 59.936C76.938 42.784 87.434 34.208 105.418 34.208ZM95.53 90.464C98.73 90.464 101.29 89.632 103.21 87.968C105.13 86.304 106.474 83.232 107.242 78.752L110.506 60.32C110.698 59.04 110.794 57.888 110.794 56.864C110.794 51.68 108.17 49.088 102.922 49.088C96.33 49.216 92.394 52.96 91.114 60.32L87.85 78.752C87.594 80.352 87.466 82.016 87.466 83.744C87.466 88.224 90.154 90.464 95.53 90.464ZM171.856 34.88C179.152 34.88 184.336 36.48 187.408 39.68C189.712 42.112 190.864 45.184 190.864 48.896C190.864 50.176 190.736 51.52 190.48 52.928L189.136 60.416C188.368 64.576 187.024 67.936 185.104 70.496C183.248 73.056 181.168 74.88 178.864 75.968L187.6 104H168.208L160.144 78.176H154.192L150.256 104H131.824L144.016 34.88H171.856ZM165.808 49.856H158.608L156.112 66.56H162.832C166.224 66.56 168.656 65.76 170.128 64.16C171.6 62.496 172.336 60.32 172.336 57.632C172.336 52.448 170.16 49.856 165.808 49.856ZM262.335 49.856H238.719L229.215 104H211.839L221.343 49.856H197.631L200.319 34.88H265.023L262.335 49.856ZM308.922 104H260.73L272.922 34.88H321.114L318.426 49.856H287.514L285.306 62.816H310.842L308.154 77.792H282.618L280.698 89.024H311.61L308.922 104ZM359.052 34.88C367.436 34.88 373.42 36.992 377.004 41.216C379.628 44.416 380.94 48.416 380.94 53.216C380.94 54.944 380.78 56.768 380.46 58.688L376.716 80.096C375.436 87.328 372.3 93.12 367.308 97.472C362.316 101.824 355.852 104 347.916 104H319.98L332.172 34.88H359.052ZM353.004 49.856H346.764L339.948 89.024H349.068C352.076 89.024 354.412 88.224 356.076 86.624C357.804 84.96 358.988 82.272 359.628 78.56L362.412 62.816C362.668 61.408 362.796 60.128 362.796 58.976C362.796 52.896 359.532 49.856 353.004 49.856ZM431.358 105.344C422.27 105.344 415.998 103.232 412.542 99.008C410.174 96.064 408.99 92.032 408.99 86.912C408.99 84.544 409.246 81.952 409.758 79.136L413.118 59.936C416.126 42.784 426.622 34.208 444.606 34.208C452.03 34.208 457.662 35.808 461.502 39.008C465.342 42.144 467.262 46.464 467.262 51.968C467.262 54.208 466.942 56.48 466.302 58.784C465.726 61.088 465.15 62.816 464.574 63.968L463.614 65.696H446.622C448.286 63.392 449.118 60.736 449.118 57.728C449.118 51.968 446.718 49.088 441.918 49.088C435.454 49.088 431.582 52.832 430.302 60.32L427.038 78.752C426.718 80.48 426.558 82.176 426.558 83.84C426.558 88.256 429.15 90.464 434.334 90.464C439.582 90.464 442.942 87.84 444.414 82.592H436.542L438.462 71.936H463.902L462.366 80.192L461.885 82.976C459.198 97.888 449.022 105.344 431.358 105.344ZM503.031 104L503.607 88.928H487.575L482.871 104H464.535L489.207 34.88H520.887L521.271 104H503.031ZM499.095 51.68L491.511 76.064H504.087L505.143 51.68H499.095ZM560.595 34.88L570.867 68L592.947 34.88H611.091L598.899 104H581.523L588.435 65.024L573.651 88.256H561.075L554.547 65.024L547.635 104H530.355L542.547 34.88H560.595ZM660.766 104H612.574L624.766 34.88H672.958L670.27 49.856H639.358L637.15 62.816H662.686L659.998 77.792H634.462L632.542 89.024H663.454L660.766 104ZM690.16 84.32C690.16 88.736 693.328 90.944 699.664 90.944C706.064 90.944 709.264 88.96 709.264 84.992C709.264 82.88 708.176 81.152 706 79.808C703.824 78.464 701.168 77.344 698.032 76.448C694.96 75.552 691.856 74.528 688.72 73.376C685.648 72.16 683.024 70.304 680.848 67.808C678.672 65.248 677.584 62.08 677.584 58.304C677.584 42.24 687.92 34.208 708.592 34.208C716.144 34.208 721.84 35.648 725.68 38.528C729.584 41.344 731.536 45.28 731.536 50.336C731.536 52.192 731.28 53.984 730.768 55.712C730.32 57.376 729.84 58.56 729.328 59.264L728.56 60.416H711.568C712.976 58.944 713.68 57.088 713.68 54.848C713.68 50.688 710.96 48.608 705.52 48.608C698.672 48.608 695.248 50.784 695.248 55.136C695.248 57.312 696.336 59.04 698.512 60.32C700.688 61.6 703.312 62.624 706.384 63.392C709.52 64.096 712.656 64.992 715.792 66.08C718.928 67.168 721.584 68.992 723.76 71.552C725.936 74.048 727.024 77.312 727.024 81.344C727.024 89.472 724.592 95.52 719.728 99.488C714.864 103.392 707.376 105.344 697.264 105.344C687.152 105.344 680.24 103.552 676.528 99.968C673.776 97.28 672.4 93.568 672.4 88.832C672.4 87.04 672.592 85.088 672.976 82.976L673.264 81.44H690.544L690.352 82.592C690.224 83.232 690.16 83.808 690.16 84.32Z" fill="white"/>
<path d="M25.16 85.32C25.16 89.736 28.328 91.944 34.664 91.944C41.064 91.944 44.264 89.96 44.264 85.992C44.264 83.88 43.176 82.152 41 80.808C38.824 79.464 36.168 78.344 33.032 77.448C29.96 76.552 26.856 75.528 23.72 74.376C20.648 73.16 18.024 71.304 15.848 68.808C13.672 66.248 12.584 63.08 12.584 59.304C12.584 43.24 22.92 35.208 43.592 35.208C51.144 35.208 56.84 36.648 60.68 39.528C64.584 42.344 66.536 46.28 66.536 51.336C66.536 53.192 66.28 54.984 65.768 56.712C65.32 58.376 64.84 59.56 64.328 60.264L63.56 61.416H46.568C47.976 59.944 48.68 58.088 48.68 55.848C48.68 51.688 45.96 49.608 40.52 49.608C33.672 49.608 30.248 51.784 30.248 56.136C30.248 58.312 31.336 60.04 33.512 61.32C35.688 62.6 38.312 63.624 41.384 64.392C44.52 65.096 47.656 65.992 50.792 67.08C53.928 68.168 56.584 69.992 58.76 72.552C60.936 75.048 62.024 78.312 62.024 82.344C62.024 90.472 59.592 96.52 54.728 100.488C49.864 104.392 42.376 106.344 32.264 106.344C22.152 106.344 15.24 104.552 11.528 100.968C8.776 98.28 7.4 94.568 7.4 89.832C7.4 88.04 7.592 86.088 7.976 83.976L8.264 82.44H25.544L25.352 83.592C25.224 84.232 25.16 84.808 25.16 85.32ZM106.418 35.208C121.842 35.208 129.554 41.512 129.554 54.12C129.554 56.232 129.33 58.504 128.882 60.936L125.522 80.136C123.986 89.032 120.658 95.624 115.538 99.912C110.418 104.2 103.218 106.344 93.938 106.344C84.658 106.344 78.194 104.2 74.546 99.912C72.05 96.968 70.802 92.904 70.802 87.72C70.802 85.416 71.058 82.888 71.57 80.136L74.93 60.936C77.938 43.784 88.434 35.208 106.418 35.208ZM96.53 91.464C99.73 91.464 102.29 90.632 104.21 88.968C106.13 87.304 107.474 84.232 108.242 79.752L111.506 61.32C111.698 60.04 111.794 58.888 111.794 57.864C111.794 52.68 109.17 50.088 103.922 50.088C97.33 50.216 93.394 53.96 92.114 61.32L88.85 79.752C88.594 81.352 88.466 83.016 88.466 84.744C88.466 89.224 91.154 91.464 96.53 91.464ZM172.856 35.88C180.152 35.88 185.336 37.48 188.408 40.68C190.712 43.112 191.864 46.184 191.864 49.896C191.864 51.176 191.736 52.52 191.48 53.928L190.136 61.416C189.368 65.576 188.024 68.936 186.104 71.496C184.248 74.056 182.168 75.88 179.864 76.968L188.6 105H169.208L161.144 79.176H155.192L151.256 105H132.824L145.016 35.88H172.856ZM166.808 50.856H159.608L157.112 67.56H163.832C167.224 67.56 169.656 66.76 171.128 65.16C172.6 63.496 173.336 61.32 173.336 58.632C173.336 53.448 171.16 50.856 166.808 50.856ZM263.335 50.856H239.719L230.215 105H212.839L222.343 50.856H198.631L201.319 35.88H266.023L263.335 50.856ZM309.922 105H261.73L273.922 35.88H322.114L319.426 50.856H288.514L286.306 63.816H311.842L309.154 78.792H283.618L281.698 90.024H312.61L309.922 105ZM360.052 35.88C368.436 35.88 374.42 37.992 378.004 42.216C380.628 45.416 381.94 49.416 381.94 54.216C381.94 55.944 381.78 57.768 381.46 59.688L377.716 81.096C376.436 88.328 373.3 94.12 368.308 98.472C363.316 102.824 356.852 105 348.916 105H320.98L333.172 35.88H360.052ZM354.004 50.856H347.764L340.948 90.024H350.068C353.076 90.024 355.412 89.224 357.076 87.624C358.804 85.96 359.988 83.272 360.628 79.56L363.412 63.816C363.668 62.408 363.796 61.128 363.796 59.976C363.796 53.896 360.532 50.856 354.004 50.856ZM432.358 106.344C423.27 106.344 416.998 104.232 413.542 100.008C411.174 97.064 409.99 93.032 409.99 87.912C409.99 85.544 410.246 82.952 410.758 80.136L414.118 60.936C417.126 43.784 427.622 35.208 445.606 35.208C453.03 35.208 458.662 36.808 462.502 40.008C466.342 43.144 468.262 47.464 468.262 52.968C468.262 55.208 467.942 57.48 467.302 59.784C466.726 62.088 466.15 63.816 465.574 64.968L464.614 66.696H447.622C449.286 64.392 450.118 61.736 450.118 58.728C450.118 52.968 447.718 50.088 442.918 50.088C436.454 50.088 432.582 53.832 431.302 61.32L428.038 79.752C427.718 81.48 427.558 83.176 427.558 84.84C427.558 89.256 430.15 91.464 435.334 91.464C440.582 91.464 443.942 88.84 445.414 83.592H437.542L439.462 72.936H464.902L463.366 81.192L462.885 83.976C460.198 98.888 450.022 106.344 432.358 106.344ZM504.031 105L504.607 89.928H488.575L483.871 105H465.535L490.207 35.88H521.887L522.271 105H504.031ZM500.095 52.68L492.511 77.064H505.087L506.143 52.68H500.095ZM561.595 35.88L571.867 69L593.947 35.88H612.091L599.899 105H582.523L589.435 66.024L574.651 89.256H562.075L555.547 66.024L548.635 105H531.355L543.547 35.88H561.595ZM661.766 105H613.574L625.766 35.88H673.958L671.27 50.856H640.358L638.15 63.816H663.686L660.998 78.792H635.462L633.542 90.024H664.454L661.766 105ZM691.16 85.32C691.16 89.736 694.328 91.944 700.664 91.944C707.064 91.944 710.264 89.96 710.264 85.992C710.264 83.88 709.176 82.152 707 80.808C704.824 79.464 702.168 78.344 699.032 77.448C695.96 76.552 692.856 75.528 689.72 74.376C686.648 73.16 684.024 71.304 681.848 68.808C679.672 66.248 678.584 63.08 678.584 59.304C678.584 43.24 688.92 35.208 709.592 35.208C717.144 35.208 722.84 36.648 726.68 39.528C730.584 42.344 732.536 46.28 732.536 51.336C732.536 53.192 732.28 54.984 731.768 56.712C731.32 58.376 730.84 59.56 730.328 60.264L729.56 61.416H712.568C713.976 59.944 714.68 58.088 714.68 55.848C714.68 51.688 711.96 49.608 706.52 49.608C699.672 49.608 696.248 51.784 696.248 56.136C696.248 58.312 697.336 60.04 699.512 61.32C701.688 62.6 704.312 63.624 707.384 64.392C710.52 65.096 713.656 65.992 716.792 67.08C719.928 68.168 722.584 69.992 724.76 72.552C726.936 75.048 728.024 78.312 728.024 82.344C728.024 90.472 725.592 96.52 720.728 100.488C715.864 104.392 708.376 106.344 698.264 106.344C688.152 106.344 681.24 104.552 677.528 100.968C674.776 98.28 673.4 94.568 673.4 89.832C673.4 88.04 673.592 86.088 673.976 83.976L674.264 82.44H691.544L691.352 83.592C691.224 84.232 691.16 84.808 691.16 85.32Z" fill="white"/>
<path d="M26.16 86.32C26.16 90.736 29.328 92.944 35.664 92.944C42.064 92.944 45.264 90.96 45.264 86.992C45.264 84.88 44.176 83.152 42 81.808C39.824 80.464 37.168 79.344 34.032 78.448C30.96 77.552 27.856 76.528 24.72 75.376C21.648 74.16 19.024 72.304 16.848 69.808C14.672 67.248 13.584 64.08 13.584 60.304C13.584 44.24 23.92 36.208 44.592 36.208C52.144 36.208 57.84 37.648 61.68 40.528C65.584 43.344 67.536 47.28 67.536 52.336C67.536 54.192 67.28 55.984 66.768 57.712C66.32 59.376 65.84 60.56 65.328 61.264L64.56 62.416H47.568C48.976 60.944 49.68 59.088 49.68 56.848C49.68 52.688 46.96 50.608 41.52 50.608C34.672 50.608 31.248 52.784 31.248 57.136C31.248 59.312 32.336 61.04 34.512 62.32C36.688 63.6 39.312 64.624 42.384 65.392C45.52 66.096 48.656 66.992 51.792 68.08C54.928 69.168 57.584 70.992 59.76 73.552C61.936 76.048 63.024 79.312 63.024 83.344C63.024 91.472 60.592 97.52 55.728 101.488C50.864 105.392 43.376 107.344 33.264 107.344C23.152 107.344 16.24 105.552 12.528 101.968C9.776 99.28 8.4 95.568 8.4 90.832C8.4 89.04 8.592 87.088 8.976 84.976L9.264 83.44H26.544L26.352 84.592C26.224 85.232 26.16 85.808 26.16 86.32ZM107.418 36.208C122.842 36.208 130.554 42.512 130.554 55.12C130.554 57.232 130.33 59.504 129.882 61.936L126.522 81.136C124.986 90.032 121.658 96.624 116.538 100.912C111.418 105.2 104.218 107.344 94.938 107.344C85.658 107.344 79.194 105.2 75.546 100.912C73.05 97.968 71.802 93.904 71.802 88.72C71.802 86.416 72.058 83.888 72.57 81.136L75.93 61.936C78.938 44.784 89.434 36.208 107.418 36.208ZM97.53 92.464C100.73 92.464 103.29 91.632 105.21 89.968C107.13 88.304 108.474 85.232 109.242 80.752L112.506 62.32C112.698 61.04 112.794 59.888 112.794 58.864C112.794 53.68 110.17 51.088 104.922 51.088C98.33 51.216 94.394 54.96 93.114 62.32L89.85 80.752C89.594 82.352 89.466 84.016 89.466 85.744C89.466 90.224 92.154 92.464 97.53 92.464ZM173.856 36.88C181.152 36.88 186.336 38.48 189.408 41.68C191.712 44.112 192.864 47.184 192.864 50.896C192.864 52.176 192.736 53.52 192.48 54.928L191.136 62.416C190.368 66.576 189.024 69.936 187.104 72.496C185.248 75.056 183.168 76.88 180.864 77.968L189.6 106H170.208L162.144 80.176H156.192L152.256 106H133.824L146.016 36.88H173.856ZM167.808 51.856H160.608L158.112 68.56H164.832C168.224 68.56 170.656 67.76 172.128 66.16C173.6 64.496 174.336 62.32 174.336 59.632C174.336 54.448 172.16 51.856 167.808 51.856ZM264.335 51.856H240.719L231.215 106H213.839L223.343 51.856H199.631L202.319 36.88H267.023L264.335 51.856ZM310.922 106H262.73L274.922 36.88H323.114L320.426 51.856H289.514L287.306 64.816H312.842L310.154 79.792H284.618L282.698 91.024H313.61L310.922 106ZM361.052 36.88C369.436 36.88 375.42 38.992 379.004 43.216C381.628 46.416 382.94 50.416 382.94 55.216C382.94 56.944 382.78 58.768 382.46 60.688L378.716 82.096C377.436 89.328 374.3 95.12 369.308 99.472C364.316 103.824 357.852 106 349.916 106H321.98L334.172 36.88H361.052ZM355.004 51.856H348.764L341.948 91.024H351.068C354.076 91.024 356.412 90.224 358.076 88.624C359.804 86.96 360.988 84.272 361.628 80.56L364.412 64.816C364.668 63.408 364.796 62.128 364.796 60.976C364.796 54.896 361.532 51.856 355.004 51.856ZM433.358 107.344C424.27 107.344 417.998 105.232 414.542 101.008C412.174 98.064 410.99 94.032 410.99 88.912C410.99 86.544 411.246 83.952 411.758 81.136L415.118 61.936C418.126 44.784 428.622 36.208 446.606 36.208C454.03 36.208 459.662 37.808 463.502 41.008C467.342 44.144 469.262 48.464 469.262 53.968C469.262 56.208 468.942 58.48 468.302 60.784C467.726 63.088 467.15 64.816 466.574 65.968L465.614 67.696H448.622C450.286 65.392 451.118 62.736 451.118 59.728C451.118 53.968 448.718 51.088 443.918 51.088C437.454 51.088 433.582 54.832 432.302 62.32L429.038 80.752C428.718 82.48 428.558 84.176 428.558 85.84C428.558 90.256 431.15 92.464 436.334 92.464C441.582 92.464 444.942 89.84 446.414 84.592H438.542L440.462 73.936H465.902L464.366 82.192L463.885 84.976C461.198 99.888 451.022 107.344 433.358 107.344ZM505.031 106L505.607 90.928H489.575L484.871 106H466.535L491.207 36.88H522.887L523.271 106H505.031ZM501.095 53.68L493.511 78.064H506.087L507.143 53.68H501.095ZM562.595 36.88L572.867 70L594.947 36.88H613.091L600.899 106H583.523L590.435 67.024L575.651 90.256H563.075L556.547 67.024L549.635 106H532.355L544.547 36.88H562.595ZM662.766 106H614.574L626.766 36.88H674.958L672.27 51.856H641.358L639.15 64.816H664.686L661.998 79.792H636.462L634.542 91.024H665.454L662.766 106ZM692.16 86.32C692.16 90.736 695.328 92.944 701.664 92.944C708.064 92.944 711.264 90.96 711.264 86.992C711.264 84.88 710.176 83.152 708 81.808C705.824 80.464 703.168 79.344 700.032 78.448C696.96 77.552 693.856 76.528 690.72 75.376C687.648 74.16 685.024 72.304 682.848 69.808C680.672 67.248 679.584 64.08 679.584 60.304C679.584 44.24 689.92 36.208 710.592 36.208C718.144 36.208 723.84 37.648 727.68 40.528C731.584 43.344 733.536 47.28 733.536 52.336C733.536 54.192 733.28 55.984 732.768 57.712C732.32 59.376 731.84 60.56 731.328 61.264L730.56 62.416H713.568C714.976 60.944 715.68 59.088 715.68 56.848C715.68 52.688 712.96 50.608 707.52 50.608C700.672 50.608 697.248 52.784 697.248 57.136C697.248 59.312 698.336 61.04 700.512 62.32C702.688 63.6 705.312 64.624 708.384 65.392C711.52 66.096 714.656 66.992 717.792 68.08C720.928 69.168 723.584 70.992 725.76 73.552C727.936 76.048 729.024 79.312 729.024 83.344C729.024 91.472 726.592 97.52 721.728 101.488C716.864 105.392 709.376 107.344 699.264 107.344C689.152 107.344 682.24 105.552 678.528 101.968C675.776 99.28 674.4 95.568 674.4 90.832C674.4 89.04 674.592 87.088 674.976 84.976L675.264 83.44H692.544L692.352 84.592C692.224 85.232 692.16 85.808 692.16 86.32Z" fill="white"/>
<path d="M27.16 87.32C27.16 91.736 30.328 93.944 36.664 93.944C43.064 93.944 46.264 91.96 46.264 87.992C46.264 85.88 45.176 84.152 43 82.808C40.824 81.464 38.168 80.344 35.032 79.448C31.96 78.552 28.856 77.528 25.72 76.376C22.648 75.16 20.024 73.304 17.848 70.808C15.672 68.248 14.584 65.08 14.584 61.304C14.584 45.24 24.92 37.208 45.592 37.208C53.144 37.208 58.84 38.648 62.68 41.528C66.584 44.344 68.536 48.28 68.536 53.336C68.536 55.192 68.28 56.984 67.768 58.712C67.32 60.376 66.84 61.56 66.328 62.264L65.56 63.416H48.568C49.976 61.944 50.68 60.088 50.68 57.848C50.68 53.688 47.96 51.608 42.52 51.608C35.672 51.608 32.248 53.784 32.248 58.136C32.248 60.312 33.336 62.04 35.512 63.32C37.688 64.6 40.312 65.624 43.384 66.392C46.52 67.096 49.656 67.992 52.792 69.08C55.928 70.168 58.584 71.992 60.76 74.552C62.936 77.048 64.024 80.312 64.024 84.344C64.024 92.472 61.592 98.52 56.728 102.488C51.864 106.392 44.376 108.344 34.264 108.344C24.152 108.344 17.24 106.552 13.528 102.968C10.776 100.28 9.4 96.568 9.4 91.832C9.4 90.04 9.592 88.088 9.976 85.976L10.264 84.44H27.544L27.352 85.592C27.224 86.232 27.16 86.808 27.16 87.32ZM108.418 37.208C123.842 37.208 131.554 43.512 131.554 56.12C131.554 58.232 131.33 60.504 130.882 62.936L127.522 82.136C125.986 91.032 122.658 97.624 117.538 101.912C112.418 106.2 105.218 108.344 95.938 108.344C86.658 108.344 80.194 106.2 76.546 101.912C74.05 98.968 72.802 94.904 72.802 89.72C72.802 87.416 73.058 84.888 73.57 82.136L76.93 62.936C79.938 45.784 90.434 37.208 108.418 37.208ZM98.53 93.464C101.73 93.464 104.29 92.632 106.21 90.968C108.13 89.304 109.474 86.232 110.242 81.752L113.506 63.32C113.698 62.04 113.794 60.888 113.794 59.864C113.794 54.68 111.17 52.088 105.922 52.088C99.33 52.216 95.394 55.96 94.114 63.32L90.85 81.752C90.594 83.352 90.466 85.016 90.466 86.744C90.466 91.224 93.154 93.464 98.53 93.464ZM174.856 37.88C182.152 37.88 187.336 39.48 190.408 42.68C192.712 45.112 193.864 48.184 193.864 51.896C193.864 53.176 193.736 54.52 193.48 55.928L192.136 63.416C191.368 67.576 190.024 70.936 188.104 73.496C186.248 76.056 184.168 77.88 181.864 78.968L190.6 107H171.208L163.144 81.176H157.192L153.256 107H134.824L147.016 37.88H174.856ZM168.808 52.856H161.608L159.112 69.56H165.832C169.224 69.56 171.656 68.76 173.128 67.16C174.6 65.496 175.336 63.32 175.336 60.632C175.336 55.448 173.16 52.856 168.808 52.856ZM265.335 52.856H241.719L232.215 107H214.839L224.343 52.856H200.631L203.319 37.88H268.023L265.335 52.856ZM311.922 107H263.73L275.922 37.88H324.114L321.426 52.856H290.514L288.306 65.816H313.842L311.154 80.792H285.618L283.698 92.024H314.61L311.922 107ZM362.052 37.88C370.436 37.88 376.42 39.992 380.004 44.216C382.628 47.416 383.94 51.416 383.94 56.216C383.94 57.944 383.78 59.768 383.46 61.688L379.716 83.096C378.436 90.328 375.3 96.12 370.308 100.472C365.316 104.824 358.852 107 350.916 107H322.98L335.172 37.88H362.052ZM356.004 52.856H349.764L342.948 92.024H352.068C355.076 92.024 357.412 91.224 359.076 89.624C360.804 87.96 361.988 85.272 362.628 81.56L365.412 65.816C365.668 64.408 365.796 63.128 365.796 61.976C365.796 55.896 362.532 52.856 356.004 52.856ZM434.358 108.344C425.27 108.344 418.998 106.232 415.542 102.008C413.174 99.064 411.99 95.032 411.99 89.912C411.99 87.544 412.246 84.952 412.758 82.136L416.118 62.936C419.126 45.784 429.622 37.208 447.606 37.208C455.03 37.208 460.662 38.808 464.502 42.008C468.342 45.144 470.262 49.464 470.262 54.968C470.262 57.208 469.942 59.48 469.302 61.784C468.726 64.088 468.15 65.816 467.574 66.968L466.614 68.696H449.622C451.286 66.392 452.118 63.736 452.118 60.728C452.118 54.968 449.718 52.088 444.918 52.088C438.454 52.088 434.582 55.832 433.302 63.32L430.038 81.752C429.718 83.48 429.558 85.176 429.558 86.84C429.558 91.256 432.15 93.464 437.334 93.464C442.582 93.464 445.942 90.84 447.414 85.592H439.542L441.462 74.936H466.902L465.366 83.192L464.885 85.976C462.198 100.888 452.022 108.344 434.358 108.344ZM506.031 107L506.607 91.928H490.575L485.871 107H467.535L492.207 37.88H523.887L524.271 107H506.031ZM502.095 54.68L494.511 79.064H507.087L508.143 54.68H502.095ZM563.595 37.88L573.867 71L595.947 37.88H614.091L601.899 107H584.523L591.435 68.024L576.651 91.256H564.075L557.547 68.024L550.635 107H533.355L545.547 37.88H563.595ZM663.766 107H615.574L627.766 37.88H675.958L673.27 52.856H642.358L640.15 65.816H665.686L662.998 80.792H637.462L635.542 92.024H666.454L663.766 107ZM693.16 87.32C693.16 91.736 696.328 93.944 702.664 93.944C709.064 93.944 712.264 91.96 712.264 87.992C712.264 85.88 711.176 84.152 709 82.808C706.824 81.464 704.168 80.344 701.032 79.448C697.96 78.552 694.856 77.528 691.72 76.376C688.648 75.16 686.024 73.304 683.848 70.808C681.672 68.248 680.584 65.08 680.584 61.304C680.584 45.24 690.92 37.208 711.592 37.208C719.144 37.208 724.84 38.648 728.68 41.528C732.584 44.344 734.536 48.28 734.536 53.336C734.536 55.192 734.28 56.984 733.768 58.712C733.32 60.376 732.84 61.56 732.328 62.264L731.56 63.416H714.568C715.976 61.944 716.68 60.088 716.68 57.848C716.68 53.688 713.96 51.608 708.52 51.608C701.672 51.608 698.248 53.784 698.248 58.136C698.248 60.312 699.336 62.04 701.512 63.32C703.688 64.6 706.312 65.624 709.384 66.392C712.52 67.096 715.656 67.992 718.792 69.08C721.928 70.168 724.584 71.992 726.76 74.552C728.936 77.048 730.024 80.312 730.024 84.344C730.024 92.472 727.592 98.52 722.728 102.488C717.864 106.392 710.376 108.344 700.264 108.344C690.152 108.344 683.24 106.552 679.528 102.968C676.776 100.28 675.4 96.568 675.4 91.832C675.4 90.04 675.592 88.088 675.976 85.976L676.264 84.44H693.544L693.352 85.592C693.224 86.232 693.16 86.808 693.16 87.32Z" fill="white"/>
<path d="M28.16 88.32C28.16 92.736 31.328 94.944 37.664 94.944C44.064 94.944 47.264 92.96 47.264 88.992C47.264 86.88 46.176 85.152 44 83.808C41.824 82.464 39.168 81.344 36.032 80.448C32.96 79.552 29.856 78.528 26.72 77.376C23.648 76.16 21.024 74.304 18.848 71.808C16.672 69.248 15.584 66.08 15.584 62.304C15.584 46.24 25.92 38.208 46.592 38.208C54.144 38.208 59.84 39.648 63.68 42.528C67.584 45.344 69.536 49.28 69.536 54.336C69.536 56.192 69.28 57.984 68.768 59.712C68.32 61.376 67.84 62.56 67.328 63.264L66.56 64.416H49.568C50.976 62.944 51.68 61.088 51.68 58.848C51.68 54.688 48.96 52.608 43.52 52.608C36.672 52.608 33.248 54.784 33.248 59.136C33.248 61.312 34.336 63.04 36.512 64.32C38.688 65.6 41.312 66.624 44.384 67.392C47.52 68.096 50.656 68.992 53.792 70.08C56.928 71.168 59.584 72.992 61.76 75.552C63.936 78.048 65.024 81.312 65.024 85.344C65.024 93.472 62.592 99.52 57.728 103.488C52.864 107.392 45.376 109.344 35.264 109.344C25.152 109.344 18.24 107.552 14.528 103.968C11.776 101.28 10.4 97.568 10.4 92.832C10.4 91.04 10.592 89.088 10.976 86.976L11.264 85.44H28.544L28.352 86.592C28.224 87.232 28.16 87.808 28.16 88.32ZM109.418 38.208C124.842 38.208 132.554 44.512 132.554 57.12C132.554 59.232 132.33 61.504 131.882 63.936L128.522 83.136C126.986 92.032 123.658 98.624 118.538 102.912C113.418 107.2 106.218 109.344 96.938 109.344C87.658 109.344 81.194 107.2 77.546 102.912C75.05 99.968 73.802 95.904 73.802 90.72C73.802 88.416 74.058 85.888 74.57 83.136L77.93 63.936C80.938 46.784 91.434 38.208 109.418 38.208ZM99.53 94.464C102.73 94.464 105.29 93.632 107.21 91.968C109.13 90.304 110.474 87.232 111.242 82.752L114.506 64.32C114.698 63.04 114.794 61.888 114.794 60.864C114.794 55.68 112.17 53.088 106.922 53.088C100.33 53.216 96.394 56.96 95.114 64.32L91.85 82.752C91.594 84.352 91.466 86.016 91.466 87.744C91.466 92.224 94.154 94.464 99.53 94.464ZM175.856 38.88C183.152 38.88 188.336 40.48 191.408 43.68C193.712 46.112 194.864 49.184 194.864 52.896C194.864 54.176 194.736 55.52 194.48 56.928L193.136 64.416C192.368 68.576 191.024 71.936 189.104 74.496C187.248 77.056 185.168 78.88 182.864 79.968L191.6 108H172.208L164.144 82.176H158.192L154.256 108H135.824L148.016 38.88H175.856ZM169.808 53.856H162.608L160.112 70.56H166.832C170.224 70.56 172.656 69.76 174.128 68.16C175.6 66.496 176.336 64.32 176.336 61.632C176.336 56.448 174.16 53.856 169.808 53.856ZM266.335 53.856H242.719L233.215 108H215.839L225.343 53.856H201.631L204.319 38.88H269.023L266.335 53.856ZM312.922 108H264.73L276.922 38.88H325.114L322.426 53.856H291.514L289.306 66.816H314.842L312.154 81.792H286.618L284.698 93.024H315.61L312.922 108ZM363.052 38.88C371.436 38.88 377.42 40.992 381.004 45.216C383.628 48.416 384.94 52.416 384.94 57.216C384.94 58.944 384.78 60.768 384.46 62.688L380.716 84.096C379.436 91.328 376.3 97.12 371.308 101.472C366.316 105.824 359.852 108 351.916 108H323.98L336.172 38.88H363.052ZM357.004 53.856H350.764L343.948 93.024H353.068C356.076 93.024 358.412 92.224 360.076 90.624C361.804 88.96 362.988 86.272 363.628 82.56L366.412 66.816C366.668 65.408 366.796 64.128 366.796 62.976C366.796 56.896 363.532 53.856 357.004 53.856ZM435.358 109.344C426.27 109.344 419.998 107.232 416.542 103.008C414.174 100.064 412.99 96.032 412.99 90.912C412.99 88.544 413.246 85.952 413.758 83.136L417.118 63.936C420.126 46.784 430.622 38.208 448.606 38.208C456.03 38.208 461.662 39.808 465.502 43.008C469.342 46.144 471.262 50.464 471.262 55.968C471.262 58.208 470.942 60.48 470.302 62.784C469.726 65.088 469.15 66.816 468.574 67.968L467.614 69.696H450.622C452.286 67.392 453.118 64.736 453.118 61.728C453.118 55.968 450.718 53.088 445.918 53.088C439.454 53.088 435.582 56.832 434.302 64.32L431.038 82.752C430.718 84.48 430.558 86.176 430.558 87.84C430.558 92.256 433.15 94.464 438.334 94.464C443.582 94.464 446.942 91.84 448.414 86.592H440.542L442.462 75.936H467.902L466.366 84.192L465.885 86.976C463.198 101.888 453.022 109.344 435.358 109.344ZM507.031 108L507.607 92.928H491.575L486.871 108H468.535L493.207 38.88H524.887L525.271 108H507.031ZM503.095 55.68L495.511 80.064H508.087L509.143 55.68H503.095ZM564.595 38.88L574.867 72L596.947 38.88H615.091L602.899 108H585.523L592.435 69.024L577.651 92.256H565.075L558.547 69.024L551.635 108H534.355L546.547 38.88H564.595ZM664.766 108H616.574L628.766 38.88H676.958L674.27 53.856H643.358L641.15 66.816H666.686L663.998 81.792H638.462L636.542 93.024H667.454L664.766 108ZM694.16 88.32C694.16 92.736 697.328 94.944 703.664 94.944C710.064 94.944 713.264 92.96 713.264 88.992C713.264 86.88 712.176 85.152 710 83.808C707.824 82.464 705.168 81.344 702.032 80.448C698.96 79.552 695.856 78.528 692.72 77.376C689.648 76.16 687.024 74.304 684.848 71.808C682.672 69.248 681.584 66.08 681.584 62.304C681.584 46.24 691.92 38.208 712.592 38.208C720.144 38.208 725.84 39.648 729.68 42.528C733.584 45.344 735.536 49.28 735.536 54.336C735.536 56.192 735.28 57.984 734.768 59.712C734.32 61.376 733.84 62.56 733.328 63.264L732.56 64.416H715.568C716.976 62.944 717.68 61.088 717.68 58.848C717.68 54.688 714.96 52.608 709.52 52.608C702.672 52.608 699.248 54.784 699.248 59.136C699.248 61.312 700.336 63.04 702.512 64.32C704.688 65.6 707.312 66.624 710.384 67.392C713.52 68.096 716.656 68.992 719.792 70.08C722.928 71.168 725.584 72.992 727.76 75.552C729.936 78.048 731.024 81.312 731.024 85.344C731.024 93.472 728.592 99.52 723.728 103.488C718.864 107.392 711.376 109.344 701.264 109.344C691.152 109.344 684.24 107.552 680.528 103.968C677.776 101.28 676.4 97.568 676.4 92.832C676.4 91.04 676.592 89.088 676.976 86.976L677.264 85.44H694.544L694.352 86.592C694.224 87.232 694.16 87.808 694.16 88.32Z" fill="white"/>
<path d="M20.16 80.32C20.16 84.736 23.328 86.944 29.664 86.944C36.064 86.944 39.264 84.96 39.264 80.992C39.264 78.88 38.176 77.152 36 75.808C33.824 74.464 31.168 73.344 28.032 72.448C24.96 71.552 21.856 70.528 18.72 69.376C15.648 68.16 13.024 66.304 10.848 63.808C8.672 61.248 7.584 58.08 7.584 54.304C7.584 38.24 17.92 30.208 38.592 30.208C46.144 30.208 51.84 31.648 55.68 34.528C59.584 37.344 61.536 41.28 61.536 46.336C61.536 48.192 61.28 49.984 60.768 51.712C60.32 53.376 59.84 54.56 59.328 55.264L58.56 56.416H41.568C42.976 54.944 43.68 53.088 43.68 50.848C43.68 46.688 40.96 44.608 35.52 44.608C28.672 44.608 25.248 46.784 25.248 51.136C25.248 53.312 26.336 55.04 28.512 56.32C30.688 57.6 33.312 58.624 36.384 59.392C39.52 60.096 42.656 60.992 45.792 62.08C48.928 63.168 51.584 64.992 53.76 67.552C55.936 70.048 57.024 73.312 57.024 77.344C57.024 85.472 54.592 91.52 49.728 95.488C44.864 99.392 37.376 101.344 27.264 101.344C17.152 101.344 10.24 99.552 6.528 95.968C3.776 93.28 2.4 89.568 2.4 84.832C2.4 83.04 2.592 81.088 2.976 78.976L3.264 77.44H20.544L20.352 78.592C20.224 79.232 20.16 79.808 20.16 80.32ZM101.418 30.208C116.842 30.208 124.554 36.512 124.554 49.12C124.554 51.232 124.33 53.504 123.882 55.936L120.522 75.136C118.986 84.032 115.658 90.624 110.538 94.912C105.418 99.2 98.218 101.344 88.938 101.344C79.658 101.344 73.194 99.2 69.546 94.912C67.05 91.968 65.802 87.904 65.802 82.72C65.802 80.416 66.058 77.888 66.57 75.136L69.93 55.936C72.938 38.784 83.434 30.208 101.418 30.208ZM91.53 86.464C94.73 86.464 97.29 85.632 99.21 83.968C101.13 82.304 102.474 79.232 103.242 74.752L106.506 56.32C106.698 55.04 106.794 53.888 106.794 52.864C106.794 47.68 104.17 45.088 98.922 45.088C92.33 45.216 88.394 48.96 87.114 56.32L83.85 74.752C83.594 76.352 83.466 78.016 83.466 79.744C83.466 84.224 86.154 86.464 91.53 86.464ZM167.856 30.88C175.152 30.88 180.336 32.48 183.408 35.68C185.712 38.112 186.864 41.184 186.864 44.896C186.864 46.176 186.736 47.52 186.48 48.928L185.136 56.416C184.368 60.576 183.024 63.936 181.104 66.496C179.248 69.056 177.168 70.88 174.864 71.968L183.6 100H164.208L156.144 74.176H150.192L146.256 100H127.824L140.016 30.88H167.856ZM161.808 45.856H154.608L152.112 62.56H158.832C162.224 62.56 164.656 61.76 166.128 60.16C167.6 58.496 168.336 56.32 168.336 53.632C168.336 48.448 166.16 45.856 161.808 45.856ZM258.335 45.856H234.719L225.215 100H207.839L217.343 45.856H193.631L196.319 30.88H261.023L258.335 45.856ZM304.922 100H256.73L268.922 30.88H317.114L314.426 45.856H283.514L281.306 58.816H306.842L304.154 73.792H278.618L276.698 85.024H307.61L304.922 100ZM355.052 30.88C363.436 30.88 369.42 32.992 373.004 37.216C375.628 40.416 376.94 44.416 376.94 49.216C376.94 50.944 376.78 52.768 376.46 54.688L372.716 76.096C371.436 83.328 368.3 89.12 363.308 93.472C358.316 97.824 351.852 100 343.916 100H315.98L328.172 30.88H355.052ZM349.004 45.856H342.764L335.948 85.024H345.068C348.076 85.024 350.412 84.224 352.076 82.624C353.804 80.96 354.988 78.272 355.628 74.56L358.412 58.816C358.668 57.408 358.796 56.128 358.796 54.976C358.796 48.896 355.532 45.856 349.004 45.856ZM427.358 101.344C418.27 101.344 411.998 99.232 408.542 95.008C406.174 92.064 404.99 88.032 404.99 82.912C404.99 80.544 405.246 77.952 405.758 75.136L409.118 55.936C412.126 38.784 422.622 30.208 440.606 30.208C448.03 30.208 453.662 31.808 457.502 35.008C461.342 38.144 463.262 42.464 463.262 47.968C463.262 50.208 462.942 52.48 462.302 54.784C461.726 57.088 461.15 58.816 460.574 59.968L459.614 61.696H442.622C444.286 59.392 445.118 56.736 445.118 53.728C445.118 47.968 442.718 45.088 437.918 45.088C431.454 45.088 427.582 48.832 426.302 56.32L423.038 74.752C422.718 76.48 422.558 78.176 422.558 79.84C422.558 84.256 425.15 86.464 430.334 86.464C435.582 86.464 438.942 83.84 440.414 78.592H432.542L434.462 67.936H459.902L458.366 76.192L457.885 78.976C455.198 93.888 445.022 101.344 427.358 101.344ZM499.031 100L499.607 84.928H483.575L478.871 100H460.535L485.207 30.88H516.887L517.271 100H499.031ZM495.095 47.68L487.511 72.064H500.087L501.143 47.68H495.095ZM556.595 30.88L566.867 64L588.947 30.88H607.091L594.899 100H577.523L584.435 61.024L569.651 84.256H557.075L550.547 61.024L543.635 100H526.355L538.547 30.88H556.595ZM656.766 100H608.574L620.766 30.88H668.958L666.27 45.856H635.358L633.15 58.816H658.686L655.998 73.792H630.462L628.542 85.024H659.454L656.766 100ZM686.16 80.32C686.16 84.736 689.328 86.944 695.664 86.944C702.064 86.944 705.264 84.96 705.264 80.992C705.264 78.88 704.176 77.152 702 75.808C699.824 74.464 697.168 73.344 694.032 72.448C690.96 71.552 687.856 70.528 684.72 69.376C681.648 68.16 679.024 66.304 676.848 63.808C674.672 61.248 673.584 58.08 673.584 54.304C673.584 38.24 683.92 30.208 704.592 30.208C712.144 30.208 717.84 31.648 721.68 34.528C725.584 37.344 727.536 41.28 727.536 46.336C727.536 48.192 727.28 49.984 726.768 51.712C726.32 53.376 725.84 54.56 725.328 55.264L724.56 56.416H707.568C708.976 54.944 709.68 53.088 709.68 50.848C709.68 46.688 706.96 44.608 701.52 44.608C694.672 44.608 691.248 46.784 691.248 51.136C691.248 53.312 692.336 55.04 694.512 56.32C696.688 57.6 699.312 58.624 702.384 59.392C705.52 60.096 708.656 60.992 711.792 62.08C714.928 63.168 717.584 64.992 719.76 67.552C721.936 70.048 723.024 73.312 723.024 77.344C723.024 85.472 720.592 91.52 715.728 95.488C710.864 99.392 703.376 101.344 693.264 101.344C683.152 101.344 676.24 99.552 672.528 95.968C669.776 93.28 668.4 89.568 668.4 84.832C668.4 83.04 668.592 81.088 668.976 78.976L669.264 77.44H686.544L686.352 78.592C686.224 79.232 686.16 79.808 686.16 80.32Z" fill="#783BC6"/>
</svg>
